<?xml version="1.0" encoding="UTF-8" standalone="no"?>
<svg
   xmlns:dc="http://purl.org/dc/elements/1.1/"
   xmlns:cc="http://creativecommons.org/ns#"
   xmlns:rdf="http://www.w3.org/1999/02/22-rdf-syntax-ns#"
   xmlns:svg="http://www.w3.org/2000/svg"
   xmlns="http://www.w3.org/2000/svg"
   xmlns:sodipodi="http://sodipodi.sourceforge.net/DTD/sodipodi-0.dtd"
   xmlns:inkscape="http://www.inkscape.org/namespaces/inkscape"
   version="1.1"
   id="Calque_1"
   x="0px"
   y="0px"
   viewBox="139.3 5.6 446.6 522.1"
   enable-background="new 139.3 5.6 446.6 522.1"
   xml:space="preserve"
   inkscape:version="0.48.4 r9939"
   width="100%"
   height="100%"
   sodipodi:docname="france-regions.svg"><metadata
     id="metadata34"><rdf:RDF><cc:Work
         rdf:about=""><dc:format>image/svg+xml</dc:format><dc:type
           rdf:resource="http://purl.org/dc/dcmitype/StillImage" /><dc:title /></cc:Work></rdf:RDF></metadata><defs
     id="defs32" /><sodipodi:namedview
     pagecolor="#ffffff"
     bordercolor="#666666"
     borderopacity="1"
     objecttolerance="10"
     gridtolerance="10"
     guidetolerance="10"
     inkscape:pageopacity="0"
     inkscape:pageshadow="2"
     inkscape:window-width="1069"
     inkscape:window-height="1084"
     id="namedview30"
     showgrid="false"
     inkscape:zoom="2.5570152"
     inkscape:cx="243.68762"
     inkscape:cy="277.99711"
     inkscape:window-x="0"
     inkscape:window-y="803"
     inkscape:window-maximized="0"
     inkscape:current-layer="Regions" /><g
     id="Regions"
     transform="matrix(0.195088,0,0,0.195088,-2.2694796,-40.76319)"><path
       id="Normandie"
       d="m 1239.8,826.9 c 10,12.3 7.7,31 22.1,37.7 10.6,5.6 17.9,-8.2 24.2,-13.2 9.2,-11.3 23.5,6.2 35.5,2.4 11.9,8.5 17.7,-3.1 30.1,3.5 9.8,3.1 15.1,18 20.5,10.9 0,-5.6 16.9,-10.8 14.9,0.9 14.7,-6 24.9,-19.5 41.5,-12.8 4,7.7 12.6,-8 17.5,-2.7 -0.2,-7.8 9.1,-16.5 16.2,-5.7 11.7,2.8 -3.6,18.5 10.6,21.4 18.9,-11.1 1,26.3 18.2,12.1 8.4,10.3 12.1,-11.9 22.5,-9.6 1.2,-9.8 32.4,-16.5 37.5,2.1 -0.5,13.7 0.9,32.2 18.4,28.4 0,11.1 17.1,19.4 25.2,9.7 8.3,6.1 17.1,29 25.5,11 -3.3,-13.4 -12.1,-15.4 -6.9,-26 10.6,-7.1 26.8,-8.3 29.9,-24 -11.7,-9.3 5.8,-17 -6.6,-24 -2.7,-7.8 -21.1,-11.6 -16.8,-25.1 -5,-4 -17.8,-20.8 -14.3,-14 19.9,-16.8 -25.5,-19.5 -19.7,-36.4 -4.6,-6.2 -10.7,3 -21.3,-3.1 -12.3,5 -16.8,-14.8 -7.3,-22.3 9.3,-13 -18.4,-12.9 -4.8,-23.8 0.5,1.8 0.1,-14.1 2.2,-14.3 -9.4,-3.1 3.1,-18.9 -11.7,-19.5 3.3,-16 -11.2,-22.5 -2.7,-15.9 -6.8,-7 5.7,-37.5 -16.2,-28.3 -57.3,58 -128.5,8.4 -197.1,6.9 -22.3,26.5 -64.9,-43.3 -37.7,-49.9 5.6,-45.5 -58.5,5.6 -87.4,-18.2 -42.2,-25.1 3.9,42.6 -1.5,71.8 27.9,-0.5 12.4,34.8 40.7,35.7 -17,33.9 2.7,45.5 -0.1,54.4 -4.5,27.8 -8.5,69.9 32.1,78.9 -12,-1.4 -21.2,5.7 -33.2,1 z m 299,-183.1 c 1.1,12.4 4.3,23.2 2.4,33.5 16.5,-11.3 0.4,12.9 4.1,11.9 13.7,2.6 4.7,18.5 14.5,22.5 -7.1,6.8 1,14.7 -8.1,18.3 11.5,4.7 12.5,19.6 1.9,30.8 5.3,18.6 34,-3.4 35.5,15 -4.7,11.4 35,15.3 22.5,33.1 -1.7,0.7 3.9,15 10.5,6.7 7.7,-14 27.2,-3.9 37,-17.8 9.6,7.4 8.3,-16 16.7,-2.7 10.1,-1.1 27.1,6.9 32.1,-5.2 -10.7,-17 26.7,-13.3 12.9,-30.5 7.3,-1.9 13.1,-11.3 2.7,-10.6 4.9,-7.6 -11.4,-23.2 5.7,-20.4 3.4,-7 24.3,-0.1 23.8,-18.6 3.7,-11.4 6.3,-39.4 22.2,-25.4 -1.6,-10.7 -4.9,-25.3 -12.6,-36.2 1.9,-10.4 21.2,-25.5 2.8,-19.1 -3.4,-5.9 4.2,-16.3 -5.9,-19.5 3.9,-7.3 0.4,-19.2 8.1,-26.4 -14.1,10.9 -2.4,-19.4 5.7,-16.6 -12.7,-12.1 -6.6,-35.6 -28,-40.1 -7.9,-11.2 -22.7,-20.5 -27.4,-28.4 -48.3,39.2 -124,36.3 -178.4,74 -80.3,34.1 3,89 20.6,66.4 l -10.6,3.9 -10.7,1.4 z" /><path
       id="Hauts-de-france"
       d="m 2152.5,517.8 c -10.3,3.6 -34,1.3 -27,-14 -12.4,11 -16.8,0.9 -28.1,0.4 -9.5,-5.8 -21.3,-6.3 -26,1.2 -9.1,3.2 -16.8,-10.3 -25.4,3.9 -13.6,-7.5 -23.3,3.5 -34.2,-1.3 -9.4,0.3 -22.8,3.8 -30.5,-4.8 -14.6,-6.7 -25.2,4.1 -36.8,3.9 7.5,-17.6 -9.3,-0.7 -17.8,-4.8 8.3,-6.4 5,-20.4 -2.4,-15.5 3.2,14.3 -16,1.2 -24.7,-0.3 0,-9.7 -22.7,-13.8 -13.9,-4.3 -6.7,3.1 -6.8,18 -14.1,6.2 -11.8,-9.5 10.9,-19.3 14.3,-22.6 -7.6,-12.2 -18.1,4.5 -22.5,-4 -9.1,4.1 -22,0.2 -31.8,6.6 -6.1,-1.2 -14.8,-5.4 -13.1,-13.6 -8.9,-5 -25.8,-6.9 -18,-17.3 -10.4,12.7 -21.7,-17.5 -34.8,-3.5 -15.2,10.4 -34.1,-27.1 -30.1,16 52.3,23.5 -33.9,13.7 -19.7,45.9 10.7,-2.5 8.9,12.3 18.9,16.5 15.4,13.1 32.8,22.3 34.5,44.1 3.3,6.5 11.9,13.4 -0.1,13.7 -1.2,7.4 -13.6,16.7 0.5,11 2.3,8.4 -9.1,12 -4.9,21.2 -2,5.7 7.3,19.1 3.7,24.8 13.6,-9.2 5.7,11.9 -1.7,15.6 -1.4,8.6 8.4,18.7 8.9,31.7 11,19.3 -10.6,2.8 -12.7,12.8 9.4,4.1 0,17.1 14.8,11.9 15.4,8.4 31.1,-0.4 46.3,-4.8 6.3,9.8 21.8,2.9 23.5,12.4 8.8,-2.6 13.3,-14.9 19.9,-1 13.8,-3.1 22.8,16 29,8.6 4.6,17.9 18.3,-7.2 24.5,12.4 8.6,-1.5 9.2,1.2 16.1,-7 11.8,7 24.7,2.4 34.2,1.1 7,-1.5 15.2,-9.4 25.2,-0.6 -4.6,6.2 25,35.5 4.6,20.2 8.7,3.9 7.8,18.5 17.6,13.9 7.8,12.8 10.4,9.7 15,16 8.3,9.4 12.1,7.3 17.3,-6.4 13.6,-3.8 11.3,-19.1 24.5,-24.8 -4.2,-6.1 -23.2,-2.6 -9.8,-14 5,-2 -9.2,-23.1 11.2,-18.7 9.8,3.5 13.2,-3.7 2.1,-7.1 -10.6,-7.4 -7.2,-17.5 -6.1,-18.5 -10.4,-14.6 14.7,-16.9 23.7,-21.8 10.7,7.2 5.6,-8.3 18.3,-10.4 7.9,1.9 19.8,18.5 20,0.1 -1.1,-10.7 -3,-22.2 3.7,-29.7 -0.9,-17.8 -10.2,-6 -4.8,-23.3 14.5,5.1 10.8,-9.3 20.3,-13.8 9,-6.1 13.3,-13.5 6.9,-20.1 -0.6,-9 13.1,-23.4 0.7,-30.1 3.9,-11.7 2.4,-10.6 -9.2,-14 z M 1895.2,261.2 c -8.7,3.9 -16.7,7.6 -25.4,9 -3.1,-1.1 -5.9,0.7 -8.5,-1.3 -6.5,1.8 -12.8,4.7 -19.7,5.2 -3.9,1.7 -7.5,3.8 -11.7,4.6 -4.7,2.6 -10.1,0.6 -15,2 -5.2,0.4 -10.1,2.1 -15.2,2.7 -2.9,0 -6,1.7 -8.7,3.3 -5,-0.3 -9.1,3 -13.8,4 -4.8,1.4 -9.8,3.3 -13.2,7.1 -5.8,3.4 -8.2,11.5 -15.4,12.7 -2.4,0.9 -6.7,0 -7.4,3.1 1.6,7.5 5.7,15 3.7,22.8 -0.1,6.4 -6.4,10.7 -5.7,17.2 0.9,7.9 2.6,15.8 2.1,23.8 -0.7,3.5 1.7,5.8 3.8,8 3.1,4.3 -2.5,1.1 -3.5,3.7 -0.9,8.7 -0.4,17.6 -2.1,26.2 -1.5,2.8 -1.763,6.51309 1.4,8.2 1.344,0.71678 3.1,1.3 4.2,2.2 l 4.8,1.6 0.7,0.5 1.6,2.2 0.4,0.2 0.7,0.8 0.6,1.9 0.5,0.2 2,1.2 0.1,0.4 2.4,-1.4 0.2,-0.3 1.4,0 0.9,-0.6 0.5,-0.2 3.2,-0.6 0.3,-0.2 0.2,-0.1 1.5,-1.4 0.6,-0.3 2,-0.5 0.8,-0.8 1,-0.4 3.9,0.4 0.1,0 0.7,0 0.1,0 1.3,0 0.7,0 0.8,0.3 2.2,1.7 0,0 0.4,0.3 3.7,1.5 0.6,0.1 0.7,0.7 2.5,1.4 0.6,0.7 0.8,2.2 1.3,0.7 0.5,0 0.7,0.2 0.9,0.5 0.3,0.4 1.8,0.1 3.1,-3.7 0.7,-0.4 0.8,-0.2 1.1,0.2 2.9,2.4 0.4,1.1 0,0.7 -0.1,0.4 -0.6,1.5 -0.5,0.6 -3,2.1 0.7,1.1 0.2,-0.2 0.4,-0.2 0.6,-0.2 1.4,0.4 1.4,1.6 3.6,1.5 0.3,0.2 1,0.7 0.2,0.2 0.2,0.3 0.8,0.3 1.9,-0.3 0.9,0.2 1.3,0.8 0.2,0.1 0.6,0.5 0,0 1.5,1.4 0.9,0.2 0.1,0 0.7,0 0.7,0.2 1.7,1.1 0.4,0.3 0.4,0.6 -0.2,1.7 -1.7,1.5 0,0.2 0.6,0.9 0,0.9 1.5,1.4 0.1,0.1 0.5,0.6 0.3,0.7 0.1,1.5 1,-0.2 2.2,0.5 0.6,-0.8 1.6,-0.4 2.6,1.3 0.4,0.3 0.5,0.6 0.2,0.4 0.4,1.1 2.5,-2.7 1.1,-0.4 0.3,0 0.4,-0.3 0.9,-0.3 0.5,0 1.2,-0.4 1.2,-0.7 0.2,0.1 0.9,-0.5 0.6,-0.2 1.7,0 1.2,1 0.1,0.4 0.6,-0.3 0.3,-0.1 1.7,-0.3 2.2,-2.6 1.5,-0.3 2.9,1.5 0.5,0.4 0.4,0.6 0.1,0.1 0.6,0.7 2.2,-1.2 0.8,0 -0.6,-0.8 -1.2,-0.6 -0.2,-0.7 0.9,-1.6 2,-0.6 0.5,-0.4 1.7,0.4 0.3,0.5 0,0 0.3,0.5 3.3,5.3 0.2,-1 0.3,-0.5 1.6,-1.9 1.3,-0.4 0.2,0 0.1,0 1.6,-1.5 0.4,-0.3 0.7,-0.2 1.2,0.2 1.3,1.1 1.9,0.1 0.1,0 0.5,0.1 1.3,-0.4 0.1,0 0.8,-0.2 1.5,0.7 0.7,1.7 0.4,0.4 0.1,0.1 0.6,0.9 2,1.1 0.6,0 0.8,0.4 0.6,0.7 0.5,0.4 0.2,0.3 0.4,0.7 0.2,0.7 0,0.3 0.1,0.4 -0.8,1.5 -0.4,0.1 -0.2,0.1 -0.9,0.5 -0.6,0.1 -0.4,0 -0.9,0.4 -0.1,0 -0.4,0.2 0,0 -3,2 -0.9,0.2 -0.7,-0.2 0,0 -1.3,-0.1 -1.9,1 -0.1,0.1 0,0 0,0 -0.2,1.3 -0.8,1 -0.6,0.2 -0.8,0 0,0 -0.3,0.8 -0.9,0.8 -0.3,0 0.2,1.2 -0.3,0.9 -0.8,1 -0.8,4.4 0,0.1 -0.2,0.6 1.3,-0.1 1.2,0.7 0.3,0.6 1.3,0.9 0.6,0.1 1,1 0.4,1.7 0,0 1.9,-5 0,0 0.3,-0.7 0.2,-0.5 0.4,-1.1 0.2,-0.4 0.5,-0.7 0,-0.2 1.1,-1.1 1.3,-0.1 0.4,-0.2 0,0 1,-0.7 0.6,-0.2 2.4,-0.2 0,0 2.8,-0.7 0.2,0 0.8,0 1.2,0.7 2.1,4.6 0.7,-0.4 0.1,-0.1 -0.3,-2.3 0.2,-0.8 0.8,-1.3 1.5,-0.5 2.1,0.8 0.4,0.2 0.7,-0.4 0.9,-0.1 0.7,0.2 0.1,0 0.6,0.1 0.9,1.8 -0.6,1.2 -0.2,0.4 -1.7,1.8 0.2,0.4 0,0.1 0.2,0.2 2.1,0.9 0.4,0.3 2.2,-0.6 0.4,0 2.4,0.2 0.7,0.2 0.6,0.5 0.5,1 0,0.2 0,0.1 0.3,0.3 1.2,0.6 0.4,-0.4 1.5,-0.4 2,1 0.4,0.3 0.9,-0.2 0.8,0.1 1.3,0.6 -0.3,-0.3 -0.1,-1.7 0.9,-1.2 0.6,-0.4 0.5,-0.2 -0.7,-2.6 1.2,-1.6 2.9,0 0.2,0 0.7,0.1 0.6,0.3 2.8,2.4 0.3,0.3 0.1,0.2 1.4,0.3 1.9,-0.6 1.4,0.4 0.5,0.6 0.2,1 -0.4,2 0,0.2 0.2,0.4 0.1,0.2 0.3,1.3 -0.1,0.7 -1.2,2.8 -0.2,0.4 -1.6,1.7 -0.1,0.1 0,0.6 0.2,0.6 -0.4,1.5 -2.4,2 0.2,0.2 0,0 0,0.1 2.6,-0.4 0.5,-0.8 0.8,-0.6 1.7,-0.3 1.2,-1.8 0,0 0.5,-0.6 1.6,-0.1 2.1,-1 0.6,0.1 0.5,-1 0.4,-0.5 2,-1.4 0.7,-0.2 0.8,0 1.3,1.3 -0.1,2.8 0.6,0.2 0.8,0.7 1.9,3.6 0,1.1 -0.6,1.3 2,-1.2 0.7,-0.2 2.2,0.2 0.3,-1.9 1.9,-0.9 1.1,0.7 0.1,-0.1 0.1,-0.3 0.4,-0.7 0.7,-0.5 0.7,-0.2 0.8,-0.1 0.5,0 1.3,0.4 0.7,0.2 0.6,0.5 0.8,1.1 1.8,-1.2 0.3,-0.2 0.7,-0.2 0.1,0 1.2,-0.5 0.1,-0.1 0.4,-0.2 0.7,-0.7 1.1,-0.3 1.6,0.3 0.2,0.1 0,0 0.7,-0.2 0.7,0 3.7,1.2 0.2,0.1 0.5,0.3 0.1,0 0.1,0 1.9,0.6 0.2,0.2 1,-0.6 0.3,-0.4 2.2,0.2 0.7,1.5 2.4,1.3 0.6,0.9 0.2,1 0.9,1.3 0,0 3.3,-0.2 1.3,1.4 0.6,0 0.4,-0.2 1.7,0.6 0.6,1.1 3.6,-1 3.9,-2.7 1.3,-0.1 0.3,0.2 1.1,-0.4 1,0.1 0.1,0 0.5,0.6 1.4,-0.8 0.7,0.2 0.6,0.1 0.1,0 0.6,0.2 0.7,0.5 1.2,1.9 -0.2,0.5 0.5,0.3 1.8,-0.4 0,0 0.7,-0.2 0.7,-0.2 0.7,0 2.6,0.7 0.6,-0.2 0.7,-1.5 0.5,-0.5 0.6,-0.4 0.1,-0.8 0.5,-0.6 0.9,-0.6 3.4,-0.2 0.7,0.2 1.7,1.1 0,0 0.6,-0.5 1.5,-0.1 2.3,1.5 1.1,-0.1 1,0.4 0.6,0.6 0.1,0.4 8.1,0.5 0.1,0 0.1,0 1.9,-2 0.2,-0.4 0,-0.1 0.1,-0.4 0.9,-0.8 3,-0.7 1.6,-2.6 0.7,-0.6 1.5,-0.4 0.3,0 0.8,0 0.2,0 1.8,0.2 0.6,0.2 1.3,0.8 0.1,0.1 0.4,0.4 2.1,0.6 0.6,0.4 2.2,2.4 0.3,0.6 0.1,0.4 0.1,-0.1 0.6,-0.4 0.4,-0.2 0.6,-0.2 0.2,-0.1 1.9,-1.1 1.1,0 0.6,0.2 0.1,-1.8 0.3,-0.7 1.2,-1.5 0.8,-0.4 0.5,0 5.6,-2.4 0.2,0 0.5,-0.1 0.6,-0.5 1.8,0.2 0.8,1 3.2,1.7 0.4,0.3 0.2,0.2 3.5,0.5 0.6,0.2 0.7,0.4 0.3,0.4 1.7,-0.4 0.9,0.2 2.6,1.7 0.1,0 2,-1.3 0.4,-0.2 0.7,-0.2 1.2,0.3 1.5,1.4 3,0.6 0.4,0.2 2.2,1.2 0.6,0.8 0.2,0.8 -0.2,0.3 0.3,0.2 0.5,0.9 0,1 3.2,-2 0.3,-0.4 0.7,-0.4 3.2,-0.8 0.3,0 0.9,0 0.3,0.2 4.3,-3.3 1.4,-0.1 1.1,0.7 0.6,0.6 0.3,0.7 0,0.1 0.6,2.2 -0.1,0.8 -2.3,5.4 0,0.6 2.7,-0.1 1.2,0.7 0.6,1.3 0.8,0 0.8,0.3 0.7,0.6 1.7,-0.7 0.7,0 4.8,1.1 0.1,0 0.8,0.3 0.8,0.8 0.4,1.1 1.4,-0.2 0.5,0 0.5,0.1 4.6,-1.2 0.1,0 3.1,-1.7 c 0.5,-1.4 0.5,-2.7 -1.4,-4 -1.6,-2.8 1,-6.3 3,-8 3.7,1.1 4.3,-2.7 6.7,-4 3.3,0 4.6,-3.7 1.9,-5.7 -2.5,-2.4 -4,-5.5 -2.8,-8.8 0.4,-3.5 -5.2,-3.5 -6.9,-1.5 -4.5,1 -2.7,-2.8 -2.8,-5.3 3.4,-1 1.6,-4.5 3.1,-7.1 1.8,-2.1 -2.1,-6.4 1.7,-6.7 1.7,-2.6 3,-6 6.5,-6.9 4,-2.6 -0.7,-7.4 -4.2,-7.2 -1,-3.7 -5.4,-1.9 -3,1.3 1.5,3.2 -5.3,3.7 -4.1,-0.1 -3.1,-1.6 -1.1,-6.3 -4.7,-7.9 -1.6,-2.7 -4.8,-1.7 -6.1,-4.5 -3.4,-1.3 -4.1,-4.8 -5.8,-7.5 -3.7,1.3 -7.2,3.2 -11.2,2.9 -3.4,1.6 -7.2,4.2 -11.1,2.8 -1,-3 -4.8,-2.3 -6.4,-4.8 -2.8,-1.2 -4.9,1.7 -7.7,-0.1 -3.1,0.5 -6.5,-1.1 -9.2,1.2 -2.7,1.3 -2.4,5.4 -3.2,8.1 -3.6,-3.5 -2.1,4.3 -5.7,0 -2.8,-3.9 -3.6,-9 -5.2,-13.3 1.8,-3 3,-6.5 1.5,-9.9 -0.3,-3.1 0.7,-6.6 -1.7,-9.2 -0.7,-2.8 -4.6,-3.5 -5.1,-6.7 -1.3,-1.9 -4.3,-5 -6.2,-2.2 -3.6,-2.5 -8,-1.7 -11.7,0.3 -4,-0.4 -1.5,-5.1 0.2,-6.6 -1.1,-1.5 -6.2,-4.1 -7.4,-1.7 -1.1,3.1 -3.6,4.3 -6.7,4.2 -3.5,0.2 -6.4,2.8 -9.9,2.9 -2.1,-2.9 -5.9,-3 -8.5,-5.3 -3,-0.5 -3.8,-3.7 -5.6,-5.4 -0.4,-4 0.8,-8.1 0.4,-12.1 -0.3,-3.4 -4.2,-5 -3.7,-8.5 -0.7,-3.1 -3.1,-6.3 -2.2,-9.4 3.7,-1.4 1.6,-3.5 0.7,-5.9 1.3,-3.4 -2.9,-4.8 -5.5,-4.1 -2.4,-1.6 -2.7,-4.3 -3.9,-6.5 -1.1,-3.3 -3.5,-5.8 -4.4,-9.3 -2.1,-2.3 -6.9,-2.3 -8.7,-1.1 -1.6,2.8 -5.3,3.5 -7.8,1.9 -3.1,0.1 -4.7,3.3 -8,2.6 -2.4,0.6 -4.6,3.7 -6.9,3.2 -1.9,-1.6 -5.5,2.3 -3.3,4 -2.7,1.5 -1.1,5.2 -4.1,6.5 -1.7,4.6 -3.3,1.6 -5.4,-0.5 -3.3,0.8 -4.6,-2.5 -7.1,-3.5 -4.1,2.1 -10.3,-0.7 -9,-5.9 -2.8,-1.3 -4.1,-3.2 -4.5,-6.2 -2.9,-0.8 -4.6,-2.9 -6.1,-5.2 1.9,-4.4 -4.1,-4.3 -6.8,-4.6 -2,-1.3 -4.8,3.4 -6.9,0 -1.2,-2.3 -0.7,-6.1 -4.2,-6.5 -0.3,-2.5 2.2,-5.4 1.1,-8.5 -0.6,-2.8 -0.6,-5.7 -3,-7.4 0.7,-2.7 3.8,-4.1 4.6,-6.7 3.1,-0.5 0.2,-5 -1.3,-6.3 -0.5,-3.1 -2.1,-5 -5.2,-5.7 -3.1,-3.9 -2.4,-9.8 -3.9,-14.5 -0.7,-2.4 -1.3,-4.9 -2.9,-6.7 z"
       inkscape:connector-curvature="0"
       sodipodi:nodetypes="cccccccccccccccccccccccccccccccccccccccccccccccccccccccccccccccccccccccccccsccccccccccccccccccccccccccccccccccccccccccccccccccccccccccccccccccccccccccccccccccccccccccccccccccccccccccccccccccccccccccccccccccccccccccccccccccccccccccccccccccccccccccccccccccccccccccccccccccccccccccccccccccccccccccccccccccccccccccccccccccccccccccccccccccccccccccccccccccccccccccccccccccccccccccccccccccccccccccccccccccccccccccccccccccccccccccccccccccccccccccccccccccccccccccccccccccccccccccccccccccccccccccccccccccccccccccccccccccccccccccccccccccccccccccccccccccccccccccccccccccccccccccccccccccccccccccccccccccccccccccccccccccccccccccccccccccccccccccccccccccccccccccccccccccccccccccccccc" /><path
       id="Centre-val-de-loire"
       d="M1725.5,758.2c10.3-0.2,10.6,12.1,13.7,16.8c6.8,6.7-2.4,23.6,7.6,28.3c-12,11.7,2.9,20.7,9.7,29.9   c7-1.3,2.7,11.5,13.9,11.1c0.3,13.8,10.7,34,27.1,27.5c-3.6,11.8,12.5,10.3,5.9,24.2c-7.9,16.6,15.6,12.4,23.5,10.4   c12.1-0.9,16.3-14.8,23.4-1.1c8.3-6.6,33.8,3.1,24.4-0.7c-4.6,17,24,10.2,14.4,27.7c-2.6,2.9-19.6,18.4,2.4,13.6   c10.9-9.9,31.8,11,38.8-8.1c10.2-7.6,0.9,13.2,13.4,5.5c14.4-13.3,32.7-0.6,32.1,14.6c17,8.7,13,30.5-5.5,36.6   c-3.7,10.4,2.4,13.5,1.1,23.6c-3.6,12.4-33.6,1.3-27.5,22c10,3.6,16.4,14,13.9,26.1c15.4,13.3-31.5,3.9-7.5,23.3   c17.8,14.5-15.2,35.1,4.1,45.3c13.9,11.1,14.6,31.2,18,47.9c-4.7,10.5,13.4,14.2,5.2,26.7c1.7,10.9-1.7,23.1-0.9,34.7   c-8.8,9.8-27.6,2.5-34.1,20.8c-20.4,3.8-17.3-2-22.2-0.3c-2.4,6.9-15.5,12.3-13.2,15.9c-15.7-1.2,5,34.6-4.8,18.6   c7.8,15.7-15.7,12.8-25,13.3c-18.1-0.9-18.8,19.4-28.3,22.9c-16.2-0.2-29.3,5.7-44-3c-11.6-1.5-21.5,5.7-30.5-3.6   c-10.8,0-3.1,24.3-17.4,9.3c-8.2,15.1-6.8-10.2-17.5,2.5c-5.1-12-16.4,5.9-23.3,12.6c-4.2-11.8-15.6-13.9-21-5.7   c-10.9-0.2-18.6,0-10.6-11.9c-16.4-1.7-4.2-24.9-24.8-26.2c-6.8-5.7-21.2-7.5-25.9-19.6c10.9-15.3-1.6-27-12.9-38.1   c0.3-18.2-21.3-17.6-19.1-39.9c-4.2-5.6-27.7-17.9-20.4-1.9c5.1,4.1-19.7,2.4-24.5,7.8c-11.9-1-21.7,0.5-16.9-14.1   c2.9-16.2-11.1-16.4-21-15.3c14-10.1-37.2-29.6-11.3-15.1c-13.8-0.5-3.1-23.4-3.2-35.3c13.7-15.6,13.3-25.8,18.9-45.2   c5.4-8.8-3.7-15.4,4.5-23.6c0.2-15.3,28.9,18.5,26.1-2.6c-11-16.7,9,3.4,12.3-9.6c12.1-3,28.4-9.1,19-18.3   c8.3-9,17.5-9.3,22.5-19.8c11.5-5.7-0.1-16.7,7.6-23.1c5.4,10.4,6.6-21.5,9.1-15.3c5.1-20.6-15.9-6.3-0.9-21.9   c-3-11.5,14.4-25.7,12.7-19.3c-8.9-5.7-22.4-6.8-14.3-17.8c-4.1-10.6-7.5-30.4-7.1-23.1c11.1-4.3,31.6-12.2,30.3-27.9   c-9.8-5.1,5.6-18.4-5-22.5c-9-10.1-22.4-15.5-17.9-30.1c8-6.6,35.8-11.6,24.9-10.4c18.7-13.2,19.4,12.9,22.5-14.3   c10.6,8.6,20.6,5,33.5,5.6c11.8-5.8,0.2-20.5,15.4-23.6C1732,774.2,1720.1,762,1725.5,758.2z" /><path
       id="Bretagne"
       d="M1096.7,1101.3c3.6-17.2,25.4,8.2,25.5-15.9c7.3,2.8,23.8,10.2,19.9,3.6c6.7-10.3,9.7-5.3,11.3-16.8   c-0.3-15.4,8.7-24,23-28.5c3.6,9.1,20.1-11.6,30.7-1.9c10.7-0.7,21.2-2.6,24.5-14.9c8.1-6,24.1-5.5,22.4-16.4   c15.3-4.2,26,20.3,37,9c4.8-14.1,10.2-24.5,15.6-39.8c4.4-8,26.4,1,18.1-15.2c-2.6-21.4-18.3-48.5-3.7-68.3   c-3.3-14-3.8-25-3.2-38.9c-11.8-0.8-27.3-14.6-32.6,0.4c-10.6,9.2-20.2,14.2-32.1,4.2c-11-10.7-5.5-41.8-26.9-29.3   c-34.1,13.2-39.1-46.5-58.6-2.8c15.5,14.6,8.3,39-1.7,2.7c-21.9-18.1-21.1,22.5-34.2-1.8c-8.4-9.8-24.3-15.7-49.1,5.9   c-25,40.2-32.5,0-53.6-19.7c-12.6-41-22.6-50.3-31.3-33.3c-21.6-6.4-12.9-5.6-47.1,1.1c-16.7-4.7-36.2,3.2-32.9,24.4   c2.4,22.2-44-16.5-44,9.6c-3,27.8-18.7-30.7-32.5-1.2c-27.1,4.5-37.2,3.8-55.7,9.7c-33.5-1.1-17.8,18.8-41.9,15.7   c-19.5,4.5-26.6,52.4-4.4,53.9c35.3-6.6,74.6-31.7,44.4,0c23.7-5.9,13.6-2,29.7,5.4c14.4,6.8-46.6-20.2-48.1-3.5   c-20-4.3-2.4,52.2,9.1,20.4c44.4,4.9,35.2,43.2-8.7,35.9c-56.8,8.1-2.4,12.8,17.4,27.7c-4.6,46.8,38.1,6.1,42,23.3   c3-21.2,41.1-10.6,29-0.7c7.9-12,28.8,29.1,53.3,18.5c22.8,29.4,63.7,0.8,48.7,13.1c-5.1,9.7,28.3,26.1,25.1-2.6   c18.1,2.5-8.6,33.6,8.1,60c-1.2-16.8,40-11.9,25.9-22.6c1.8-20.6,0.5,3.5,30.6-10.9c3.2,1.5,30-0.2,1,18.4   c-24.8-12-21.1,16.5,11,9.8c22.3-12.9,12.7-1.7,54.1,0.7C1102.6,1089.1,1080.2,1091.5,1096.7,1101.3z" /><path
       id="Nouvelle-aquitaine"
       d="m 1774.8,1331.1 c 13.2,11 33.2,-2.2 48.6,10.3 9.7,-2.5 31,-10.1 31.4,6.2 12.2,-0.6 -5.8,13.4 11.7,15.9 9.4,-3.8 7.1,7.4 18,7.5 4.9,15.9 15.7,26.6 11.4,44.1 5.7,10.6 15.3,27.1 0.8,32 -0.1,16.3 -16.5,13 -19.9,24.5 -15.6,1.1 3.6,20.3 9.9,24.3 7.5,8.2 6.1,21 -1.9,23.7 -8.1,12.8 11.2,18.8 5,32.2 -9.7,9.7 -14.5,25.8 -3.3,24.9 -7.7,-0.8 -27.5,-17.9 -20.4,2.2 -1.5,15.1 -19.3,19.4 -25.7,33.8 -1.3,11.3 -7.9,35.3 -2.6,25.6 0.2,9.6 -23.9,8.3 -10.9,22.9 9.4,12.6 -21.2,2.2 -25.9,13.2 -6.4,-15 -22.8,16.2 -29.7,3.4 -8.6,-10.3 -21,-26 -34.2,-23 -10.3,-0.5 -19.2,13.2 -21.6,-6.3 0.5,-9.4 1.3,-18.2 -12.6,-16.4 -18.6,3.2 4.2,-16.7 -15.6,-14.2 6.4,-6.8 11.3,-12.4 -0.1,-16 -1.9,-11.9 23.9,-19.1 9.4,-28.6 -9.5,2.7 8.5,-12.4 -8.1,-10.8 -4.3,-9 -29.1,-4.1 -11.3,-18.4 -8,-9.6 -22.2,-1.2 -21.4,-17.8 -8.4,-7 -22.2,1.6 -28.5,-5 -4.2,17.8 -20.7,0.7 -13.5,-11.3 -4.4,-9.9 -29.4,-0.6 -17.6,-14 10.4,-2.1 6.1,-20.4 15.6,-12 6.8,-3.9 13.5,-22.7 9,-32.3 23.5,12.5 24.6,-29.1 7.1,-24.1 -9.4,-3.8 -4.1,-17.8 -4,-21.9 7.7,-10.2 -15.2,-21.7 3.3,-25.3 -0.4,-15.1 21.9,-4.3 25.1,-14.1 1,-11.5 28.7,-7.4 18.9,-11.9 4.8,-14.9 12.8,0.4 22.4,-4.9 8.3,-4.7 15.8,-8.5 20.8,5.6 11.2,0.4 17.8,-26.7 24.6,-10.7 9.6,-12 25.4,-4.9 15.9,0.2 13.1,3.5 13.5,-1.9 19.9,-13.5 z m -333.7,833.5 c -4.2,-13.6 5.6,-37.3 4,-28.7 -4.6,-15.2 12.7,-18.1 12.1,-25.8 -0.2,-10 10.2,-18.7 16.1,-25.3 4.6,-4 6.9,-11.4 12.5,-20.6 -10.7,-6.6 2.5,-16.3 7.1,-17.5 -9.1,-4.7 0.5,-32 -9.8,-13.6 -12.5,-17.2 3.9,-11.1 -1.4,-23.7 0.1,-8.3 -10.5,-6.9 -9.1,-16 -11.4,-1.1 -22.4,1 -26.5,-7.8 -5.1,-8.9 7.5,-12.7 3.8,-23.9 14.4,-5.2 -3.6,-20.7 7.8,-27.4 2.2,-9.4 -3.9,-10.4 -6,-16.6 11.7,-12.1 23.7,-4.5 33.3,-19.1 11.4,5 2.9,24.7 15.6,16.1 -11.1,-12.2 12.5,-26.2 14.5,-14.7 3.7,-21.9 19.8,1.8 26.8,-7.4 14.8,0.5 22.1,-15.4 37.7,-11.9 9.5,-14.5 16.3,20.7 23.5,0.4 4.7,-2.8 8.3,-12.7 12.6,-15.5 -2.8,-8.5 24.7,4.1 12.2,-8 -7.7,-9.7 9.8,-35.1 11.7,-24.3 -6.8,-6.7 -15.1,-8.3 -8.4,-19.5 0.1,-16.8 13.2,3.2 21.3,-3.4 15,-3 -4.2,-18 -1.9,-27.9 -12.2,-15.4 5.5,-15.5 13.9,-21 3.5,-7.6 6.7,-17 11.1,-23.5 16.5,-4 25.4,-13.3 20.9,-27 12.1,-3.2 12.5,-14.9 22.1,-19.3 -7,-7.4 1.3,-16 -5,-27.8 10,-5.2 -10.7,-23.7 -1.1,-27.7 -9.1,-1.2 -30.5,-3.7 -18.2,-14.4 -22.1,-1.2 -1,-11.9 -3.4,-14.3 -14.9,-9.6 3.1,-21.1 8.7,-30 -17.4,-1.6 -3.6,-11.1 -7.8,-12.8 -8.7,-2.4 -18,-5.2 -24.6,-12 9.6,-9 -14.7,-6.5 -5.9,-10.2 -7.7,-12.8 -12.8,-21.5 -29.6,-15.1 -3.3,-11.6 -9.2,17.6 -14.2,1.6 -16.6,0.7 2.7,-29.3 -19.2,-21.2 -13.9,-13.2 -12.4,19.1 -24,10.8 -3.6,8.9 0.6,21.4 -11.2,26.7 -2.6,12.6 -15.7,8.3 -21.6,18.3 -3.4,-2.1 -15.2,17.4 -7.1,29.1 -4.9,10.6 -16.9,12.2 -21.3,24.2 -8.9,-4.9 -23.5,0.6 -22.9,10.4 -7.9,23.5 -19,19.4 -22.2,17.8 -13.5,3.8 -21.4,-13.5 -29.8,-12.1 -7,-3.2 -16.3,-2.6 -15.4,-19.6 5,-16.5 -15.2,-12.3 -25.1,-17.3 3.4,-15.3 -11.5,5 -21.8,-5.3 7.9,70.1 28.5,62.3 24.4,85 -25.5,-39.6 -48.3,-129.7 -87.4,-133.4 -9.9,43.5 -25.9,190.6 -21.3,195.3 37.7,-33.2 26.8,15.1 -0.9,28.4 -18.6,85.8 -3.3,204 -70.1,267.6 -38.1,37 61.3,9.3 48,50.7 -19.3,55.9 18,-4.7 36.2,32.4 31.1,21.3 68.5,9.9 84.5,40.7 11.9,23.9 31.6,13.3 51.8,7.1 z m -65.6,-576.3 c 11.6,9.8 27.1,-12 24.8,7.4 14.6,-1.4 31.3,5.6 24.4,22.2 2.7,14.1 20.5,4.7 26.7,21.2 11.6,11.5 21.1,-9.5 29.3,2 6.2,-8.6 5.3,-22.2 19.1,-29.1 8.7,3.2 15.9,3.7 18.2,-8.2 8.8,-3.7 19.2,-9.6 10.7,-22.5 0.1,-11.7 9.7,-18 12,-22.6 8.5,-2.6 18.6,-9.9 25.2,-18.8 9,-6 -2.1,-27.9 14.6,-22.8 2.7,-15.8 21.4,-24.8 24.4,-38.8 13.7,8.3 15.7,-17.6 13.4,-27.6 14.5,5.5 28.4,-11.4 13.3,-21.4 -8,5.3 -16.1,-10.3 -9.9,-18.2 -1.7,-7.3 3.8,-16.2 -5.4,-24.3 6.7,-9.7 17.9,-23.3 32.7,-19.1 -0.1,-14.4 13.2,-18.9 20.6,-17.7 6.7,-6.4 17.5,-13.4 3,-18.6 0.2,-11.8 -5.3,-22.6 -20.9,-20.9 -5.9,-7.4 -26.4,-15.1 -17.9,-31.6 8,-13 -18.4,-20.7 -17.3,-35.1 -7.6,-8.3 -18.2,-17.8 -17.1,-32.8 -7.1,1.2 -15.2,-14.3 -16.4,-3.5 13.9,13.4 -20.1,3.2 -24.2,13.4 -12,-1.4 -27.4,-0.3 -20.8,-16.4 -1.9,-10.7 -7.1,-21.8 -10.3,-13.8 -16.8,10.5 -22,-3 -12.8,-9.2 -6.6,-8.1 -14.3,-0.4 -16.9,-14.1 -16.8,-4.6 -5.9,24.6 -22.3,16.4 1.8,15.3 -23.5,5.4 -10.8,-1.9 -12.4,1.6 -31.4,-2.3 -40.4,8 -12,3.8 -18.9,-11.7 -20.4,8 -11.3,11.8 -26.2,11.2 -39.1,6.6 -10.8,5.4 -19.3,8.7 -3.7,16.9 -7.6,14.1 15.4,19.9 17.5,28.1 -9,11.2 11.1,18.9 8,28.7 4.3,10.6 6.4,20.6 8.4,34.3 -13.8,2.4 6.7,18.3 -5.6,25.3 -2.2,6.8 14.2,-2.6 15.5,9 -8.3,7.7 -15.9,17.8 -28.3,15.8 -7.4,10.4 -18.9,-13.6 -24.3,-0.4 -18.8,7.4 -7,-15.9 -24.3,-7.8 -19.5,7.5 -16.3,24.4 -30.2,39.1 15.5,-10.9 50.4,147.7 18.1,54.8 -24.8,22.4 35.7,72.6 -12.8,34.6 -36.9,29.9 57.8,46.6 66.9,86.4 l 5.3,17.7 0,1.3 z" /><path
       id="Pays-de-la-loire"
       d="M1310.2,1362.9c6.9-5.8,21.1-14.8,33.1-13.1c-8.6,19.2,11.5,6.2,19.5,5.1   c0.5,7.5,11.7,10.8,16.7,3.8c17.9,2.7,7.9-9.3,20.7-8.5c4.1-15.8-17.5,3.5-12.8-15.3c10-7-8.6-21.9,5.4-25.3   c-3.4-9.4-3.5-19.5-7.5-24.2c2.5-13.5-14.8-19.8-10.4-35.9c0.7-4.9-25-14.5-16.4-26.1c-8.9-5.6-18.4-14.6-4.5-16.8   c14.9-9.7,40,7.1,46.6-12.2c0.5-15,17.9-8.8,24.7-7.4c7.2-11,29-6.1,40.2-7.6c4.8,2.3-5.9,13.5,6.9,8c-0.1-13.6,15.9,0.3,11.3-13.2   c6.5-16.5,18.7-4.8,17-23.8c-2.6-17.2,18.5-27.7,13.7-39.8c5-10,11.8-24.4,6.7-32.4c5-11.5,5.8-22.8,21.4-12.2   c20,15.9-2.4-10.2,11-10.9c6.4,9.3,15.1-4.8,24.6-5.5c11.4-1.3,0.2-12.6,11.1-19.6c12.2-3.2,15.6-12.1,23.1-21.6   c-8-7.5,1-17.8,6-13.8c7.2-9.7,0.5-14,4.7-25.5c-16.5-6.4-9.8-24.8-2.6-19.3c8.9-9,20-9.9,1-15.2c-9.4-1.8-20.9-4.1-23.4-18.6   c-7.7-1.4-4.8,7.5-16.5,2.4c-12.9-2.6-10-16.2-24-15.6c-15.5-6,0.4-39.5-24.6-38.9c-15.2,3.6-21.1,10.8-32.6,19.5   c-2.8,8-15.1-1.8-19.9,3c4.4-19.5-4.2-11.8-15.3-18.5c-2.5-11.4-0.4-22.8-13.5-22.2c3.8,14.1-18.7,20.3-14.7,13.3   c-6.3,7-20-8.5-29,1.1c-7.6,5.7-24.3,17.3-25.7,4.3c-13.2,4.4-17.1,10.9-13.4,9.9c-7.2-6.7-9.5-5.3-16.5-14.7   c-12.1,0.1-13.6-4.5-24.5,1.4c-13.8-12.4-4.1,10.7-8.9,16.7c13.4,16.6-8.9,32.4,0.3,49.1c-1.4,17.8,14.9,35.6,6,49.8   c-14.3,0.2-20.8,7.6-22.8,22c-4.3,7.9-7.2,19.1-12.5,27.4c-15,1.2-23.2-16-34-12.2c0.4,14.5-28.7,7.7-28.3,25.2   c-15,10.5-35.8-2.9-51.3,11.5c-4.8-2.7-21.6,3.7-18.6,15.6c-1,20.8-9.1,11.9-10.4,23.4c-6.6,2.4-27.5,3.4-18.8,0.3   c-5.6-6.3-9.8,17.5-23.4,9.8c-11.7,1.7,10.7,18.3-20.9,17.2c23.9,23.6-13.7,19.3,32.5,29.1c16.1-27.1,107.9,1.8,82.8,8.5   c-19.5-27.4-61.9-15.4-64.5,16.3c57.3,9.4,4.7,51.3,25.2,83.3c40.4,26.9,30.1,67.2,62.1,77.8c22.2,10.9,50.1,25.5,70.6,40.4   C1297.9,1370.3,1296.6,1353.8,1310.2,1362.9z" /><path
       id="Ile-de-france"
       d="M1763.3,690c-0.8,5.2,2.8,17.5,13.8,12c12.9,7.7,30.9,2.3,45.4-5.3c4.2,4.2,12.1,8.2,16.4,7.7   c4.9-1.5,10,11.4,17.7,0.1c4.6-5.3,27.6,4,21,7.3c14.9,6.4,36.6,25.1,22.7,10.9c4.9,4.7,16.5-6.9,20.6,6.8   c9.5-0.2,33.9-1.2,22.3-4.6c7.5,6,18.9-3.1,25.1,1.7c11-5.5,25.9-5.7,18.7-6.9c12.8,0.6,7.6,15.1,8.9,21.7   c11,4.1,13.7,18.6,21.7,19.1c9.2,3.5,25.8,21.2,17,15.2c4.5,4.1,19,5.5,4,9.5c-9.9,1.5,4.6,6.3-7.1,14c11,2,14.3,12.6,7.1,22.1   c3,11.7,23.1,0.6,10.5,15c-8.9,17.2-19.4,6-13.5,19.9c-6,5-6.8,27.8-5.2,19.1c9.7,7.5-4,5.3-9.2,11.2c-14.5,0.5-28.6-0.2-42.3,3.5   c-11.7,3.5-6,21-5.9,25.8c-7.4,13.8-22.1,21.4-35.1,25.4c5.9-13-17.1-5.6-14.3,0c-11.2,2.4-30.9-1.9-39.7,1.3   c7.5-5.3,14.2-15.6,5.4-25.1c-10-1.7-12.5-7.1-14.7-18.2c-9.7,2.1-17.6-6.8-24.5,2c-6.9-17.2-15.9,8.1-25.9,1.5   c-9.8,6-23.3,5.4-18.3-7.6c6.8-9.3-4.6-15.9-5.1-18.8c2.3-17-13.7,2.7-18.3-11.6c-12.9-2.3-0.5-28-19.2-26.2   c6.3-11.3-11.2-5.2-11.1-16.2c-8.8-3.9-7.9-13-1.6-21.1c-15.3-5.7,2.5-24.4-12.1-28.7c5-10.9-13.5-15.8-6.2-25.6   c-10.5,2.8-3-9.2-9.6-15.9c7.6-1.1,24.8-2.1,28.1-11.4C1760.4,711.5,1753.7,697.4,1763.3,690z" /><path
       id="Bourgogne-franche-comte"
       d="m 2626.8,1089.6 c 2.6,-9 -5.3,-20.1 -12.9,-22.4 -13.9,5.5 -2.5,-16.7 -2,-21 2.6,-18.8 -27.2,-16.3 -32.3,-28.4 -10.2,-10.5 -27.9,-16.7 -36.6,-29.8 -11,16.3 -23,11.9 -31.8,-0.8 -9.8,-11.4 -29.1,12.2 -34.9,-1.7 -11.2,-2 0.3,-20.6 -17.4,-13.8 -4.6,5.2 -22.4,26.9 -21.7,12.1 1.1,-9.5 -5.8,10.4 -8.8,14.2 -9.6,-2.8 -5.8,20.1 -18.6,9.6 2.3,13.2 -16.5,4 -12,18 9.9,3.9 -2,13.8 0.9,21.5 -6.7,2.2 -21.1,-15.6 -19.8,-4.1 -7.4,13.4 -25.8,0.4 -28.4,15.7 -6.7,12.6 16.7,-10.7 16.2,12.1 7,11.4 -11.1,23 -14.1,22.4 -6.8,7.6 10,1.6 5.2,13.8 -1.3,11.4 14,2.3 9.5,15.5 -8.1,10.1 10.7,9.2 -0.1,17.4 -2.4,18 -7.7,32.5 -19,47.6 -11.6,-0.9 -17.6,10.3 -9.2,15.3 -10.4,3 -12.6,18 -0.9,16.4 0.2,15.2 16.2,4.9 20.1,17.1 15.2,8.7 -11.7,8.4 -16.2,11.9 8,5.5 21,27.9 9.4,19.1 3.5,11.1 9.7,20.5 3.2,29.1 -1.4,6.5 -15.6,11.2 -4.8,19 16,9.3 -3.2,15.2 -11,16.7 -3.5,10.8 14.2,10.4 10.1,21.4 5.4,4.9 16.8,2.8 14.7,14.4 1.8,12.3 20.8,-3.8 25.1,-11.2 5,0.2 17.2,7.9 16,16.4 20.3,3.9 31.4,-7 39.5,-22.6 29.9,-28.3 23.9,-68.1 68.3,-87 0.6,-41.9 35.6,-58.6 60.6,-87.5 27.9,-26.7 52.6,-58 19.7,-61.1 15.3,-13.7 8.4,-30.2 34,-25.3 z M 2029.5,883 c 5.9,13.3 16.9,-0.1 24.9,14.1 1.4,9 17.9,13.6 9.9,24.3 -7.8,11.2 15,19.7 7.3,14.1 4.4,18.1 19.2,-11.1 14.7,8.6 14,0.3 8.5,21.3 19.9,26.7 -12.3,15.1 12.3,-2.7 5.9,12 -5.5,16.2 18.5,3.9 25.6,8 16.3,1.1 12.4,-8.8 23.7,-3.1 -3.7,-18.5 12.2,19.9 16.1,-2 11.8,-4.9 29.8,1.4 41.4,-5.9 -8.7,-17 20.1,-10.4 29.2,-6 10.6,-0.4 2,13.3 16.9,13 -14.6,18.2 10.1,23.9 9.2,11.9 7.1,9.7 16.1,20 0.1,26.3 2.9,6.1 10.1,8.3 5.9,18.6 10.8,3.3 11.7,-2.5 18.2,7.8 8.5,12.4 18,-9.7 17.5,3.6 12.9,2.9 10,27.3 23.4,9.9 5.2,3.7 14.4,5.2 18.3,-5 15.2,10.8 5,30.8 -8.4,31 -4.4,8.7 0,8.5 6.5,11.8 -3.7,12.3 10.4,19.2 9.2,15.3 -2.9,9.8 -0.4,14.3 2.3,18.4 -5.1,6 -5.2,18.7 -7.6,24 -4.1,10.8 -7.7,24.6 -21,25.8 -10.5,4.5 -9,17.7 -6.6,16.7 -9.3,9 -3,20.1 3.7,18.6 2.5,15.5 16.4,3.6 21.2,16.6 11.5,6.9 -32,1.6 -12.7,15.3 6.8,5.9 -3.5,13.7 7.5,20 -1.6,7.6 9,15.1 -1,21.3 -4.3,2.8 -14,22.6 3.1,25.6 -5.6,11.3 -32,13.9 -33.6,-4.2 -11.3,-2.7 -23.7,11.4 -35.1,-1.7 -15.8,-2.5 -12.7,23.3 -21,34.7 -3.2,14.6 -7.7,32.6 -14.9,43.9 -6.8,-3.7 -1.7,-18.3 -9.9,-19.3 11.5,-7.9 -14.8,-17.5 -13.4,-2 -10.5,-7.1 -38.7,-14.8 -20.7,-4.6 -20.8,-14.1 -11.1,25 -24.2,23.6 -7,3.6 -11.4,10.3 -12.1,-0.7 -9.9,-1.5 -15.4,6.1 -25.4,-2.1 -8.7,4.7 -16.9,9.1 -21.4,-1.6 -13.7,4.4 -9.7,-18.7 -4.1,-19.1 10.5,-6.2 12,-9.6 8,-24.2 9.1,-10.9 -2.8,-30.3 -15.3,-21 -3.8,-12.6 -15.1,-7.6 -23.7,-14.9 4.4,-18.6 -15.4,-30.8 -18.4,-47.4 -8.7,-4 -11.8,22.4 -12.1,15.5 -7.6,-2.2 -16.7,17.9 -16.3,-1.6 -7,-14.1 -18.4,10.7 -26.6,-5.5 -11.3,12 -18.2,3.6 -28.5,-4.2 -22.4,-7.9 4.1,-25.9 -7,-39.2 6.3,-13.2 5.4,-29.9 -4.6,-39 4.1,-15.2 -6.5,-30.6 -8.3,-45.2 -13.5,-8.6 -19.4,-17.7 -8,-32.2 9,-14.3 -22.8,-30.1 -1.5,-33.6 21,5.2 -2.7,-14.1 6.1,-21.2 -5.3,-6.4 -11.2,-15.4 -15.4,-17.4 -0.6,-13.8 35.3,-3.9 25.8,-23.4 5.4,-7.2 -6.9,-15.7 6.1,-21.2 17.1,-9.3 13.5,-28.5 -0.5,-35.9 0.4,-13.8 -10.2,-16.9 -18.4,-23 12,-6.6 21.4,-18.2 13.3,-30.3 3.2,-14 14,-10 24.2,-13.6 10.5,2.6 19.5,-1.6 30.5,-1.2 -2.1,-3.4 1.3,-2.8 2.1,-4.5 z" /><path
       id="Grand-est"
       d="m 2709.8,732.8 c -8.1,10.1 -11.5,37.4 -27.5,20.2 -9.8,-3.1 -26.8,10.7 -30.2,-3 -14.7,-0.3 -30.7,-11.2 -30.1,-22.4 -7.6,4.7 -4.5,28.3 -16.2,28.3 -18.3,15 25.3,12.8 14.7,23.5 -9.7,0.5 2.7,12.1 2,9.5 6.6,-5.4 11,-18.5 18.6,-6.9 8.9,0.4 11.6,7.3 16.2,16.3 -11.9,12.3 0.1,34.3 -3.2,27.3 -2.2,16.7 -21.6,31.8 -34.1,27.8 13.8,2.1 2.1,5.8 5.4,18.3 -3.4,7.6 -1.5,16.8 -1.9,21.1 6.7,4.4 19.5,-0.3 14.5,12.3 -6.7,9.6 -18.5,27.8 -17.6,37.4 -1,13.3 -14.1,26.7 -21.4,35.1 -7.4,12.4 -1.3,24.9 -7.6,34.9 -20.8,7.4 10.8,14.2 17.3,19.1 10.4,8.9 4.1,22.7 0.7,31.8 6.2,0 15.4,4.3 17.2,13.6 6.9,16.1 10.8,13.7 8.8,23.4 22.6,18 66.5,-19.1 52.2,-20.3 19.5,-18.4 -8.3,-58.1 12,-89.8 -7.5,-43.7 26.2,-85.9 33.1,-131.6 0.8,-47.8 59,-67.2 66.7,-108.2 -32.4,-11.3 -55.1,-21.4 -89.6,-17.7 z M 2166.9,521.4 c -5.7,11.1 10.2,19.2 -1.8,30.5 -5,12.1 8,14.6 -1.3,25 -13.6,5.7 -12.1,25.8 -28.1,22.3 0.6,4.3 0.5,21.6 4.1,17.7 3.9,8.8 -9.5,14.4 -1.4,24.7 -3.1,3.2 -0.9,30.1 -13,15.3 -6.9,-7.7 -20.6,-4.2 -19.8,7.4 -11.6,-5.2 -24.2,3 -33.3,9.4 8.8,6.9 -2.6,22.3 9.2,21.9 5.9,4 12.3,16.5 -2.4,13.9 -17.3,-3.7 -8.9,9.1 -8.5,17.7 -21.2,6.6 17.7,2.7 4,16 -10.4,6.1 -8.7,19.3 -21.7,22.4 -8.3,7.7 -2.5,24 -12.5,23.1 -4.4,9.6 -6.6,9.4 4.3,14.7 2.2,11.9 -10.5,25.8 9,19.9 12.7,10.8 -12.7,13.3 -8,26.7 -20.1,6.8 -0.4,6.9 -12.5,14.8 0.1,9.7 4.1,13.4 4.4,24 16.4,-8.9 23.4,17.6 32.1,24.8 -1.6,13.7 -8.3,12.4 3.9,20.1 3.2,15 18.9,-12.8 14.7,8.8 15.8,1.6 10.3,29 26,32.5 1,12.3 -3.3,15.3 11.4,13.4 7.6,-0.7 28.1,3.5 21.7,-0.2 7,-11.9 14,2.7 12.5,-9.2 7.3,0.1 13.1,20.3 17.5,2.6 10.1,-1.8 37.3,2.4 36.6,-5.3 -0.5,-15.2 24.3,-10.7 34.2,-4.9 16,-3.1 0.7,14.3 17.8,12.1 -5.5,20.2 2.9,-1.3 9.8,13.2 6.2,8.7 20.2,23.2 1.1,28.8 7.9,0.5 6.4,12.9 7.5,18.8 13.6,-12.4 9.9,9.6 24.6,8.6 2.4,-17.7 25.9,14.9 18.9,13.1 2.5,5.1 14.8,-7.7 18.2,-2 2.4,-13.8 12.4,-21.5 26.1,-16.5 8.1,-18.6 11.7,8.6 23,-2.5 3.5,-2 0.8,-12.3 4.5,-17.1 -11.2,-2.4 -1,-17.5 6.5,-15.2 -0.1,-14 16.9,0.8 16,-17.3 15,0.8 -1.4,-17.1 -8.7,-9.8 2.9,-14.2 -9.5,-26.1 -19.5,-28.6 -12.6,-4.9 5.7,-14 1.9,-25.7 20.4,-5.3 -12.1,-9.6 -4.9,-19.2 -12.7,2.9 -38.8,-18.4 -27.2,-18.5 -13.8,12.3 -8,-10.7 -12.2,-12 14.9,-4.8 -2.3,-16.1 -9.2,-19.4 -7.2,-8.1 -23,-8.9 -30.5,-16.8 -8.6,-7.1 -13.6,-15.9 -22.6,-11.7 -8.8,-14.6 6.9,-26.2 -10.3,-37.4 -2.4,-6.7 -16,-5.7 -6.9,-14.8 9.6,-3.5 -6.9,-21.6 9.8,-23.5 18.3,-1.2 19.8,-18.7 10.1,-15.6 -11.8,-5.4 -6.4,-5.1 -5.6,-23.8 -6,-9.3 -11,-22 -2.9,-25.9 -9.6,-13 22.6,-11.3 7.8,-26.9 5.4,-11 13.4,-30.2 13.3,-19.9 0.7,-10.4 -13.3,-18.2 -2.8,-26.1 0.8,-9 6.3,-20.3 14.3,-8.9 11.6,-3 18.7,13.7 25.3,-5.8 19.1,-3 7.1,-20 -1.3,-12.5 -21.4,-20.3 -64.8,-24 -75.9,-47.5 -3.1,-22.8 -5.6,-42.9 5.8,-65.7 -33.4,-15 -28.9,58.2 -73,46.2 -10.5,-1.2 -19.6,-8 -30.1,-4.2 z m 185.2,80 c -6.9,6.3 -14.3,16.9 -24.1,16.7 -5.6,-6.9 -17.1,-4.5 -21.8,-8.9 0.3,11.3 -11.9,19.8 0.3,29.2 0.9,13.9 -3.1,18.4 -12.9,28 10.6,12.4 -4.4,14.8 -9.3,22.1 7.8,10.3 -10,12.5 1.1,24.4 8.7,11.6 -2.7,22.5 9.3,25.7 -6.9,7.6 6.3,17.7 -10.6,22.1 -17.3,1.8 1.4,20.9 -11.9,25.7 5.2,6.6 25.3,19.4 16.4,28.8 1.5,7.7 -2.3,21.6 9.5,12.6 0.5,9.3 10.8,8.9 14.9,14.7 10,11.1 25.9,9.7 35.4,21.1 5.6,1.9 13.7,11.6 14,14.5 -8.8,0.2 -8.8,22.6 0,13.3 13.8,-7.3 12,22.8 23.8,14.1 8,10.1 9.1,12.6 19,21.6 -4.2,4.6 -6.6,10.6 -11,18.6 -1.3,7.9 -6,7.2 6.4,11.6 10.2,5.9 16.4,15.2 15.4,26.8 9.3,-14.3 13.3,15.2 17.9,-4.6 14,-9.3 -0.4,16.9 8.7,2.9 9,-1.3 12.3,-16.1 24.4,-14.9 10.6,4.5 3.1,20.9 17.7,20.3 13.2,-10.8 35.6,-7.3 39.2,10.6 10.2,-2.7 21.4,-23.5 27.1,-3.5 16,6.1 28,28.7 41.3,12 -2.1,-10.5 -0.2,-24.5 7.1,-34.9 8.3,-4.7 16.8,-21.1 17.3,-27.6 -0.8,-14.8 17.9,-33.1 18.4,-44.5 -2.5,-3 -24.1,-3.1 -12.9,-14.9 -5.6,-8.1 5,-20.3 -1.6,-28.5 12.7,2.6 -16.4,-4 0.9,-6.4 16.1,6.1 31.7,-19.3 28.5,-27.9 -13.7,-8.5 15.5,-29.5 -5,-34.4 -6,-3.4 -12.3,-13.2 -16.9,-1.1 -3.4,10.1 -13.1,3.2 -13.1,0.3 -9.5,-10.4 17.2,-10.8 -1.1,-12.5 -14.9,-4.2 -21.7,-15.1 -10.3,-21 12.7,-1.2 7.7,-24.5 18.1,-29.4 5.2,6 4.8,17.6 17.3,19.5 13.5,4.3 21.9,15 39.1,5.6 9,7.1 21.6,10.2 21.6,-5 17,-30.2 -13.1,-12.8 -13.3,-35.5 -22.2,-2.4 -88.5,11.2 -70.4,9.2 -13.3,-55.3 -51.1,15.7 -59.6,-31.2 -18.8,-28.4 -28.3,-52.9 -68.3,-58.9 -32.4,13.1 -52,10.7 -80.1,-11.4 -26.6,2.9 -44.4,24.4 -55.9,-15 z" /><path
       id="Corse"
       d="M3014.6,2325.8c-5.3,7.5-12.3,25.2-24.5,44.2c5.4,32-7.5,78.7-12.4,81.5c-6.7,8.7-6.8,40-11.6,43.5   c-26.7,25.6-17.5-24-50.7-17.9c-21-8.2-33-29.7-7.3-42c3.8-16-51.5-5.4-27.5-30.3c34.3-32-23.7-22.2-16.8-32.1   c7.6-9.9,35.9-38.6-3.9-43.5c-15.9-17.6-1-52.5,8-40.4c-19.6-12.2-3.1-16.8,3.9-39c5.2-24.3,18.1-19.4,35.4-34.4   c27.8,2.2,43.8-46.3,66.3-13.4c14.5-18.3-7.2-86.4,26-68.8c3.2,26.8,2.1,120.3,0,78.1C3019.8,2243.5,3011.5,2288.6,3014.6,2325.8z" /><path
       id="Occitanie"
       d="m 2164,2020.4 c -2.4,-12.6 15.4,-16.3 16.5,-20 6.6,-0.7 23.9,-12.2 19.1,-13.3 -11.9,-9.7 11.8,-35.2 24.5,-20.2 0.9,-11.1 10.6,-31.3 6.1,-41.5 12.9,-7.3 25.4,-21.7 31.4,-30.2 -6.5,-7.3 -11.2,-19.1 -19.7,-19.4 -3.6,-10.8 4.6,-27.7 -7.4,-30.5 -2,-15.1 -18.1,-19.7 -29.4,-26.1 1,7.2 -17.4,21.6 -14.1,1.5 -10.1,-11.5 -14.4,16.1 -24.4,14.3 -11.4,-10 -17.7,-17.3 -31.6,-11.9 -2,-13.3 6.6,-24.7 -8.1,-32.7 -0.1,-20.9 -17.6,-26.5 -17.8,-45.3 -2.3,-10.1 -4.8,-22.7 -9.1,-25.8 -10.8,-1.6 -11.1,-21.3 -26.4,-14.4 5,-10.8 -14,-15.8 -10,0.8 -10.7,0.1 -21.9,11.3 -25.6,-6.6 -3.8,-14.7 -5.8,-32.2 -20.6,-18.6 -13,-2.8 -6.6,18.3 -21,16.1 -10.5,-17.9 -7.6,9.1 -16.6,11.2 -3.6,14.9 -6,25.9 -12,39.5 7.5,11 20.6,18.1 13.8,33.4 20.7,11.6 1,30.2 12.6,44.7 -13.6,12.9 13.5,32.6 11.5,19.8 -6.1,14.1 28.5,-9.6 23,12.5 -10.9,2.3 -3.5,17.8 -15.2,17.2 14.8,3.2 5.2,7.1 15.2,7.4 22.9,3.8 6.2,21 -2.6,28.4 3.1,17 -25.9,5.7 -18.1,25.8 -9.8,12.9 -34.4,-12.8 -28.9,9.4 -0.8,6.1 5.5,28.8 -9.2,19.7 -15,-2.5 -14.7,17.9 -31.5,15.8 -11,13.8 -27.2,-19.7 -29.3,7.1 -0.4,11.1 10.4,17.1 7.1,28.1 -3.4,10.4 -20.2,17.9 -31.9,10.6 -12.3,13.4 -31.8,-13.6 -38.3,2.5 0.7,18.8 -11.5,-2.8 -21.2,6.6 -9.5,-0.8 -6.3,-12.1 -17.8,-3.3 -9.5,-10 -14.8,15.3 -19.2,-6.6 -10,3.4 -3.7,17.2 -10.4,22.6 -12.9,-4.2 -18.6,15.5 -11.3,26.6 -4.9,8.8 14.3,18.4 20.8,13.6 4.1,7.1 21.6,7.3 16.2,23.2 -0.8,0.9 8.7,9.2 5.3,15.9 9.9,15.1 -18.2,4.9 -0.9,15 9.8,19.5 -16.2,12.3 -19.3,24.2 14.2,4.4 4.9,22.5 22.9,18.1 11,-9.3 22.3,7 27.2,15.5 -7.1,10.5 -30.7,-2.7 -33,14.7 -12.1,2 -15.6,9.6 -30,10.5 -1.5,22.7 47.5,62.4 74.3,34.2 31,0 67,41.6 79.5,1.7 17.6,-28.1 83.6,11.5 65.1,-18.6 -23.2,-36 -10.5,-56.4 -20.6,-84.2 7.8,-26.2 12.5,-23.3 13.4,-59.4 3.5,9.9 57.6,-45.8 80.2,-59.5 36.1,-17.7 73.7,-60.3 13.9,-13.4 5.8,-17.6 85.3,-50.9 45.3,-30.1 13,-24.2 21.8,21.1 37.6,23.4 z m -352.9,223.1 c 12.1,16.7 -13,10.8 0,0 z m -34,-20.3 c 13.2,-0.9 14.8,-9.3 27.1,-9.9 1.1,-17.2 25.7,-4.8 31.5,-14 -9.2,-9.3 -16,-17.9 -28.7,-10.5 -16,-1.4 -12.1,-16.3 -21,-23.4 3.1,-11.5 27.7,-3.8 18.9,-21.7 -18.6,-4.7 9.8,-11.1 -1.2,-20.4 4,-7.5 -9.4,-9.8 -2.9,-17.2 -0.9,-13.6 -20.2,-20.9 -15.7,-12.3 -10.3,-0.7 -27.4,-8 -22.3,-19.3 -6.8,-11.6 -0.5,-24.2 7.1,-29.6 14.1,8.3 2.7,-14.6 13.4,-17.3 7.9,-7.5 9.6,7.5 20.5,0.2 9.5,3.6 12.8,-8.4 20,6 9.4,-8.1 17.1,-18.8 19.7,-6 9.2,-18.5 26.2,9.9 40.9,-3.2 22.7,11.1 38.9,-12.9 22.4,-29.9 -2.2,-14.5 10.1,-31.4 22.6,-11.5 12.6,-5.5 24.8,-9 32.1,-19 9.1,-3.5 20.6,6.7 14.6,-9.6 0.9,-8.9 -2.1,-31.5 16.6,-17.3 21.9,8.4 6.6,-24.9 27,-17.5 5.2,-7.9 7.2,-19.6 18.8,-25.2 2.1,-12.8 -17.9,-4.5 -18.2,-15.8 -17.3,3.5 1.9,-24.6 0.3,-16.7 14.8,-12.5 -6.2,-14.1 -15.9,-8.9 -1.6,-6.6 -18.9,-24.7 -12.4,-18.4 -12.1,5 4.9,-16.4 -5,-21.7 2.5,-12.9 4,-23.8 -8.6,-34.3 8.5,-23.1 -30.5,-31.4 -22.1,-55.8 -5.6,-4.9 5.8,-8 -6.6,-8.4 -1.8,-18.9 -27.9,-21.3 -19.5,-18.6 4.1,-13.4 -19.3,1 -11.9,-7.5 -8.6,8.7 -21.6,38.6 -16.1,27.8 -5.4,10.8 -9.6,30.7 -24.1,33.3 -12.6,1.3 -15.2,-8.2 -26.4,-4.8 -5.3,5.2 -14.4,16 -16.7,0 -4,-8.2 -6.9,-12 -3.5,-25.6 12.4,-10.4 -19.5,-22.8 -7.2,-34.6 -2.5,-18.3 -35.5,-9.2 -25.9,-9.5 -4.1,-8.1 -18,13.6 -24.3,8.7 -12.2,-7.7 -20.4,-31 -39,-25.4 -6.4,-1.4 -26.6,7.6 -15.1,19.5 3.3,6.2 -27.6,56.4 -1.5,18.4 -10.4,3.4 -6.5,15.9 -20.1,16.9 8.1,14.4 -9,25.6 -24.1,29.1 0,12.5 -7,22.6 -18.1,26.5 -37,-82.2 70.1,291.3 -1.7,17.7 -0.1,9 12.8,19.6 2.2,27.1 -11.5,-3.6 -18,10 -21.7,-4.5 -2.2,7.9 -7.2,16.9 3.4,18.9 9.9,7.9 -6.6,26.9 -9.3,27.5 13.2,3.5 -4.2,20.2 -11.1,9.1 1.7,8.4 -10.4,8 -9.7,18.2 -8.8,4.4 -14,13.9 -19.9,-0.7 -7,-4.6 -14.8,6 -24.2,2.4 -9.4,12 -28.5,18.3 -40,7.7 -8.4,12 -28.6,7.5 -19.1,8.4 -9.7,2.7 5.8,24.8 -11.4,18.9 -7.6,-10.9 -5.5,-22.5 -18.1,-6.6 -7.6,-2.6 -17,1.6 -21.5,7.1 11.5,3.5 4.2,12.2 4.8,21.3 -8.9,2.2 9.3,19.1 -6.9,22.4 1.4,8.1 -2.2,13.7 -5.2,19.6 5.8,9.1 16.4,5 29,8.7 0.5,9 10.1,11.5 9.6,21.5 8,5.8 -13,14.1 -2.1,13.4 13.4,-11.2 4.8,16.2 11.6,22.1 -7,3.2 -14.6,7.6 -6.7,15.7 -6.9,11.9 -7.2,23.4 -17.1,25.1 -4.9,10.5 -15.6,14.4 -10.2,25.9 -12.3,2.6 -13.5,14.3 -12.9,27 -20.2,11.5 23.1,35.4 20.8,34.6 25,35.1 69.8,6.7 99.1,19.7 51.1,20.5 12.3,-44.7 53.6,-34 35.3,17.8 68.9,21.5 96.2,41.5 4.2,19 39.2,-9 59.1,18.7 z" /><path
       id="Provence-alpes-cote-d-azur"
       d="M2546.7,1640.2c-28.4,2.2-4.4,5-26.8,14.3c-16.4-2.5-15-14.9-30.9-16.4   c-2.7,8-17.3,33.8,8.3,25.1c1.7,10.3,12.3,17.6,7.2,30.9c-0.9,13-41.5,13.2-29.8,6.5c-9.5-1.6-33.6,3.8-26.7,7.4   c-9.4-0.7,1.9,12.6-10.4,13.3c-7.2,5.5-23.1-1.9-17.7,11.8c0.8,14-16.7,17.8-28.8,13.6c2.9,13.1-14.7,23.1,3.3,32   c-5.1,4-10.5,15.9-20.3,7.1c-15.8-9.6-13,4.1-6.5,11.7c-12,1.5-8.3,24.2-9.1,12.3c8.3,7.9,20.1,6.2,30.9,10.2   c-7.4,11.4,13.3,8.5,6.9,19.9c-0.7,13.7,0.1,17-4,19.1c-9,2.2-11.9-16.2-11.1,2c-7.8,10-22,12.5-27.6,0.5   c-11.8,1.4-0.3-20.3-16.8-12.6c-7.9-9.8-20.2,5.5-26-8.5c-0.5-8,8.6-23.4-5.8-8c-11.9-10.5-22.3,5.3-36.2,4.4   c-9.6,15-15.1,0.7-13.8-10.1c-12.5-12.9-31,0.9-17.4,15.2c4.3,4.6,9.9,16.6,4.5,28.8c5.2,5.9,14.7,8,18,20.1   c11.5,10.7-9.9,17.2-15.8,27.8c-14.5,8.4-8.9,12.3-11.1,28.1c-9.1,12.9-1.3,28.8-21.2,19c-14.8-4.7-27.1,74.2-11,27.1   c-9.8,6.6-25.6,12.3-34.5,23c41.8-8.2,61,45,89.5,23.8c-46.8-74.3-8.1-27.9,8.4-6.7c43.7,13.8,14.2-45.4,40.8-22.9   c47.3,9-60.1,47.2,22.5,38.7c21.4,7.6,27.4,44.5,68.6,36.2c18.7,10.4,18.7,39,37.9,22.2c-5.5-20.2,35.3,10.4,36.6,9.3   c8.6-26.4,33.7-6.4,54.6-27c29,4,2.4-32.2,19.5-29.9c15.8-29.2,46.9-25.5,59.2-57.6c28.2-2.9,35.6-38.9,59.5-40.3   c27.6-8.1,18.8-26.6,36.3-55c25.5-11.9,22.6-69.2-7.6-44.8c-33.5,17.5-59-17.9-88.5-25.6c-23.2-34.3-20.1-58.9-2.8-95.1   c38.2-12.7-7.4-51.9-35.4-57.5C2574.9,1655.6,2549.4,1663.7,2546.7,1640.2z" /><path
       id="Auvergne-rhone-alpes"
       d="m 2459.3,1338.1 c -16.7,14.2 -23.3,43.3 -49.8,36.3 -12.8,5.4 -8.9,-20.2 -23,-13.9 -2,13.3 -33.7,22.6 -24.9,1.5 -10.5,0 -8.2,5.4 -15.2,-9.4 2.6,-9.8 -15.6,-9.3 -9.9,-19.5 -17.9,3.3 -15.2,-24.8 -31.2,-10.7 -12,6 -30.8,-16.8 -30.5,7.4 -9.8,20.4 -12.5,46.9 -23.4,65.8 -17.4,0.8 -1.2,-18 -15.6,-20 11.1,-10.2 -8.3,-12.4 -9.8,-0.9 -9.1,-9.6 -11.5,5 -20.3,-4.6 -21.8,-11.5 -7,28.3 -26.8,26.6 -6,3.4 -10.9,-10.9 -11.6,-3.6 -7.1,0.8 -8.5,1.2 -17.8,2.1 -6.9,-10.5 -24.6,12.7 -27.7,-5.9 -20.5,6.1 -1,-24.9 -18,-13.5 -18.7,2.1 -1.1,20.9 -5.9,33.1 3.6,8.7 3,21 2.6,30 -10.4,4.3 -28.5,4.1 -12.6,16.8 2,8.9 -4.3,19.1 -6.8,28.1 11.2,8.1 12.8,20.7 20,35.2 16.7,4.5 22.8,22.7 25.2,36.2 1.9,13 -22.1,14.8 -12.3,31.1 3.9,-18.8 15.9,1.6 21.2,-3.7 9.3,5.5 15,-11.8 28.5,-8 8.5,8 14,1.5 23,9.9 0.1,6.9 8.9,23 3.2,19.3 17,-7.6 21,19 10.2,28.3 4.7,16 -6.9,2.4 -11.2,3.3 12,6 -13.9,12 0.8,17.9 -1.6,10.2 -18.4,6.3 -11.1,19.7 -16.6,-1.8 -15.1,13.7 -25.6,22.9 -11.2,-1.5 -20,1.2 -22.1,10 -7.4,4.6 -13.8,-1.1 -14,13.8 -17.8,6.2 -2.2,28 -0.3,43.3 12.6,4.9 7.6,27.5 19.8,33.8 3.3,6 0.3,17 0.5,24.5 15,-11 20.7,9.2 33.8,11.4 -0.5,-13.9 28.1,-27 21.3,-5 10.4,6.2 4.2,-23.1 19.1,-8.6 7.6,4.6 23.5,20.3 21.3,-0.1 16.7,-3.1 28.4,5.9 27,23.1 6.7,-10.7 17.6,-6.1 29.8,-14.2 9,-7.8 15.4,10.8 23.7,-5.1 7.3,3.6 -7.1,30.2 11.8,20.1 8.3,-0.7 20.6,3.2 24.9,5.9 -0.7,12.1 10,13.9 18,19.3 11.9,-2.3 8.8,-25.8 21.8,-12.3 8,-5.1 3.4,-13.3 5.7,-21.5 -13.1,0.8 -4.8,-18.8 -19.8,-13 -8.3,-4.3 -22.1,-4.7 -19.8,-19.3 -4.9,-13 17.8,2 4.2,-13.6 -3.2,-21.7 25.9,10.6 28,-8.8 7.4,-0.8 -14,-11.1 -1.4,-19.5 4.5,-8.7 0.1,-22.8 16.8,-12.8 8.1,-4.1 17.4,-8.1 12.7,-16.2 -0.3,-18.6 19.8,-3.1 26.6,-16.4 -10.1,-12.6 26.4,-18.9 21.9,-14.3 10.1,-1.4 45.4,8.8 36.6,-1.1 6.9,-12.3 -5.6,-20.8 -3.8,-33.2 -25.6,9.3 -16.2,-16.3 -13.8,-26.8 38.4,-5.9 -8.6,6.9 33,10.6 8.6,1.2 11.8,-13.8 25.2,-13 29.1,-6.2 49.3,1.7 70.3,-22.2 22.4,-5.8 29.8,-56.5 -4.8,-66.4 10,-37.4 -56.4,-46.9 -21.9,-78.1 53.8,-17.1 -9.1,-71.7 -5.5,-65.4 8.1,-45.3 -16.8,-100.7 -82.2,-61.2 -20.9,23.3 5.6,56.5 -43.3,59.5 -42.8,-4.9 50.8,-41.3 5.2,-65 z m -496.2,-87.4 c 12.2,0.9 16,17 28.4,21.5 8,21 21.9,-13.7 27.7,5 10.8,1.8 21.1,-13.4 19.4,5.7 8,6.9 15.1,-4.9 20.6,-7.8 0.4,-6.3 7.8,-23.2 10.9,-2.3 10.5,10.8 15.2,24.6 16.6,38.7 9.5,5.4 18.1,0.2 19.6,11.5 11.7,-2.1 24.8,3.2 18.8,17.5 -0.3,13.9 2.2,22.9 -13.4,25.9 -3.7,11.7 -29.4,5.6 -18.3,22.8 1.9,14 4.4,25.7 4.5,41.7 5.2,14.8 -26.7,1.7 -18.8,21 15.6,6.7 -1.5,15 2.4,27.8 -7.1,9.3 14.1,14.3 10.4,27.1 6.1,19.6 31.3,20.6 30.3,43.5 8.3,12.7 -19,16.2 -11.3,33 2.6,16.4 13.8,-17.3 18.4,4.8 3.6,-2.9 19,-10.6 14.5,-4.4 10.3,-0.2 9.8,-11.1 22.9,-5.9 3.4,11 26.2,-2.2 13.7,15 5.5,10.8 28.8,15.2 18.4,13.8 14.5,6.2 -4.7,25.8 -0.7,28.8 -15.8,-12.1 -24,8.7 -13.7,7.2 -2,12.2 7.8,13.6 -9.8,18.2 9.6,18.4 -13.7,3.7 -13.2,19.5 -4.6,14.9 -18,11.9 -29.7,15.5 0.1,15.9 -17.8,1.8 -18.4,22.4 -9.5,8 -22.7,-6.7 -16.1,-4 -5.9,-8.2 -14.1,-15.2 -20.4,-12.1 0.8,-16.9 -19.8,-8.9 -18.2,0.4 -11.6,7.8 -17.6,3.9 -19.3,-10.4 -3.1,-12.8 -9,-30.2 -21,-14.9 -8,0.9 -14.8,1.7 -14.5,14.3 -7.7,10.8 -13.4,-17 -19.6,1.2 0.6,11.7 -11.2,14.1 -9.8,27.2 -2.4,6.5 -6.4,24.3 -10.9,23.2 -11.6,-8.5 3.7,-31.9 -11.5,-30.1 -0.6,-16.1 -9.9,-23.4 -18.9,-18.9 5,-15 -10.7,-20 -16.4,-8.3 -11.5,10.7 -14.9,24.1 -20.8,38.7 -5,10.5 -11.6,27.5 -26.9,20.4 -5.5,-2.4 -14.8,-6.2 -24.5,-1 -8.4,18.4 -20.1,-14.1 -11.5,-10.5 -4.9,-4.5 12.4,-22.6 -1.1,-28.9 -11.3,-12 -1.8,-21 -11.2,-33.3 14.1,0 12.9,-10.4 5.4,-19.5 15.6,-6 19.3,-20.7 16,-17.9 12.4,-7.7 -10.7,-18.4 6.2,-25.6 4.6,-13.3 28.5,-19.5 18.4,-37.5 7.8,4.8 30.4,16.7 25.2,0.4 -7.1,-12.8 9.4,-33.2 -7.5,-43.9 3.7,-9.7 11.6,-10 9.7,-22.2 -1.3,-13.3 -32.1,-26.1 -13.8,-33.6 1.3,-7.7 15.2,-5.8 18.1,-17.9 -1.6,-8.1 13.9,-10.2 7.3,-22.3 0.4,-9.8 -13.7,-18.7 -5.3,-29.8 -7.1,-11.4 -7.5,-30.6 -22.1,-35.7 -2.4,-9.8 -25.5,-17.6 -19,-11.2 13,-8.5 -9.6,-7.3 -4.6,-18.5 4.4,-14 15.7,-22.2 32.5,-22.8 10.4,8.3 27.9,-11 16.3,-19.9 -0.3,-19.7 5.9,-22.2 5.9,-15.9 11.1,-2.1 12.4,-19.4 22.3,-7.8 15.4,-0.2 17.4,-13.8 31.4,-18.9 z" /><path
       id="Guadeloupe"
       d="M1127.1,2646.5C1125.4,2647.6,1129.5,2647.3,1127.1,2646.5z M1356.2,2714.6c-4,0.8-5.2,3.6-0.1,1.8   C1355.7,2715.7,1358.1,2715.7,1356.2,2714.6z M1112.9,2641.7C1112.8,2644.2,1116.7,2642.6,1112.9,2641.7z M1152.7,2639.1   c-0.3,1.5-4.4,7.9-1.1,4.2c2,0.5,8.9-0.3,3.9-3.3C1154.2,2640.2,1154.1,2639.3,1152.7,2639.1z M1116.4,2643   C1118.3,2645.8,1116.1,2643.4,1116.4,2643z M1353.1,2717.6c-2.2,2.6-7.6-1.5-7.6,2.2c3,1.2,6.4,1.2,9.6-0.1   C1355.6,2718.5,1353.6,2718.4,1353.1,2717.6z M1179.6,2640.4C1173.3,2639.9,1183.7,2643.6,1179.6,2640.4z M1395.3,2640.9   c-2.6,1.7-4.9,2.3-7.6,4.6c-1.4,0.9-2.5,0.2-5.2,2.2c-2.6,1.1-2.9,2.1-5.3,3.2c-1.9,1.2-4.1,3.3-6.2,3.6c-2.7-1.8-3.2,2.3-4.8,2.8   c-2.3,0.7-4.5-0.9-5.3,2.3c-2.5,1.4-2.9,6.7-0.8,7.6c1.4-3.3,6-2.4,7.8-4.1c1.8-2,6.3-1.4,9.5-2.5c5.6-1.9,8.6-7.6,14.4-9.4   c2.5,0.2,2.5-1,4.6-0.6c2.3-1.1,4.7-3.6,2.3-4.7c-0.6-1.9-1.5-2.7-1.8-5C1396.3,2641.6,1395.9,2640.7,1395.3,2640.9z    M1069.1,2719.5C1065.6,2722,1073.4,2721.3,1069.1,2719.5z M1072.3,2632C1072.3,2638.2,1077.2,2633.3,1072.3,2632z M1172.3,2698.1   c-2.7,4.3,7.7,2.3,1.6,1.7C1173.2,2699.8,1173.3,2698,1172.3,2698.1z M1144,2863.5C1142.8,2866.9,1150.4,2867.4,1144,2863.5z    M1148.6,2846.3c-2.1,3.6,6.9,3.7,2.8,0.1C1150.8,2847.6,1149.4,2847,1148.6,2846.3z M1152.2,2862.2c-4.2,3-2.1,3.8,1.9,4.6   C1157.8,2866.7,1153.3,2862.9,1152.2,2862.2z M1159.5,2844.3c-0.9,7-1.8,1.7-3.6,2.2c-2.2,2,0.2,6.8-3.8,6.5   c-3-1.4-6.2,2.5-5.6,3.3c2.5,2.1,6.5,0.8,7.9,0c3.5-0.1,4.4,1.4,3.2-2.8c1.7-1,7.9-7,4.2-3.7c-1.8-1.3,1.5-5-1.9-5.5H1159.5   L1159.5,2844.3z M1133.5,2850c-1.3,4.6-5,3.4-5.2,7.8c-2.3,3.6,3,3.6,5,5.2c4,1.7,5.1-4.2,7.1-6.2c1.7,4.3,3.7-3.4-1.8-1.7   c2.2-4.5-2.8-2.6-4.5-4.6v-0.5L1133.5,2850L1133.5,2850z M1276.7,2793.6c-1.9,2.2-3.4,5.3-5,6.7c0.4,5.2-8.3,1.9-4.9,8.5   c0,3.9-1.1,7.3-5.2,8.5c-4.8,1.3-1.4,6.3-1.6,9.9c0.1,3.6,3.2,7.4,1.4,10.4c2.2,2.5,3.5,5.7,5.9,8.3c4.2,0.1,7.2,3,11.4,3.7   c3.1,1.5,5.5,2.8,9.3,1.5c4-1.9,9.6-1.2,13.3-4.6c3.1-2.1,5.7-4.4,8-7.3c4-1.1,6.3-3.4,7.4-7.3c1.7-5.2,1.7-10-1-14.8   c-1.6-3.1-5.9-3.7-7.1-6.3c-2.5-2.7-4.2-2.6-4.9-6.6c-0.3-2-1.4-4.1-4-5.5c-1.8,0.9-2.5-3.3-4.5-1.5c-2.1-1.1-4.5-3.8-7.7-5   c-3.6-0.9-2-2.8-6-0.2C1280,2791.2,1277.7,2792.2,1276.7,2793.6z M1168.8,2670.7C1169.8,2672.1,1168.7,2670.9,1168.8,2670.7z    M1167.1,2673.1C1167.9,2673.3,1167,2671.5,1167.1,2673.1z M1148.1,2793.6c-1.3,3.4-3.5,2.7-5.4,5.5c-1.8,3.2-0.6,7.2-4.3,7.5   c-2.5-1.1-1.9,4-5,1.9c-2.4-0.3-5.1-1.5-7.1,0c-2.5,4.9-3.3-0.7-7,2.2c-1.3,3.7-4.6,5.4-8.4,5.2c-2.8,1.8-7.9,1.6-7.9-1.9   c-0.4-4.1,0.5-10-3.7-12.6c-3.9-1.9-6.2-6-9.2-9.1c-5.7-3.3-1.6-11.2-6.3-15c-1.1-2.9-5.4-5.1-5.9-8.7c-1.6-3.4,0.2-8.1,0.3-11.4   c0.9-3.4-3.1-1.9-1.6-5.5c-1.4-1.7-0.4-3.3-1.1-6c0.5-2.7-1.2-7,1.7-8.4c1-4.3-6.6-3.5-3.1-6.6c1.7-3.5,0.3-8.9,0.3-12.1   c-4.6,0.1-2.4-4.4-3-7.2c-3.9-4,1.3-6.9,0.4-11.4c-1.3-2.9-1.1-6.3-4.1-8.6c-3-1.7-4.5-5-4.8-8c-1.7-2.8-0.2-6.6-2.5-8.4   c3.6-1.1,2.8-4.8,3-7.8c-3-4.8,5.6-6.3,2-8.5c-4.6-3.2,3.7-3.4,4.3-6.4c-1.6-4.3,1-5.6,4.2-8c-1.1-4.1,3.8-2.8,6.2-5   c2.6-1.1,6.5,1.7,6.8-2.3c1.3-2.7,4.1,1.8,6.5,1.1c3.3,0.2,3.2,4,5.6,4.8c0,1.3,1.7,5,5.7,4.1c2.7,0.7,6.3,1.1,8,4.5   c1.8-0.2,3.4-2.3,5.5,2c2.3-0.3,2.8,1.1,5.4,1c2.1-1.6,9.7,0.3,6.2,2.7c1.1,2.5,4.9,2.9,7.4,4.1c2.3,3.1,8.1-2.8,10.7,0.7   c-2.9,2.1-4.3,5.1-5.7,8.4c-3.7,2.3-0.6-8-2.1-1.5c-5.4,2.2-1.1,6.1,2.9,3.3c1.3,0.9-2.3,7,2.7,4.1c2.4-2.3,3.4-8.3,4.1-2.9   c-2.5,2.6-0.2,5.2,2.9,3.8c2.1-1.7,4.7-3.9,3.9-6.6c1.8-2.7,3.4,2.6,5.9-1.6c2.4,1.4,4.1-1.6,5.4,2.5c-1.5,0.4-4.6,1.4-0.7,2.7   c2.4-5.5,3.5,3.8,2.9,6.3c-2,3.1-0.5,5.8-0.7,9.6c1,2.7,4.7,1.4,2.1,4.9c-2.3,1.8,0.1,3.1-4.1,1c1.4-1.4-2.3-7.3-3.1-3.1   c-2.5-2.7-6-2-8.5-1.9c-0.5,2.7-4.1,7.3-1.4,8.9c-2.1,3.2,3.2,5.2-1.2,7.8c-1.3,3.1,0.3,7.7,3.5,7.9c0.8,3.4-3.7,5.6-0.7,9.3   c4.1,2.3,1.3,5.1,3.1,8.3c2.7,1.3,8.8,3.3,3.6,6c-4.2,2.6,0.2,7.2,1.2,8.8c2.4,3.7,1.3,8.6,1.5,13.1c-2.1,3.6,2.1,7.8,1.2,9.7   c-1.6,2.6-3.5,5.6-3.7,8.9c-1.2,3.3-4.2,4.6-6.6,7.2c-2.3,2.3-4.4,3.5-6.6,5.7C1149.7,2793.8,1148.6,2793.1,1148.1,2793.6z    M1167.7,2668.1c2-0.6,5.2-2.2,2.9-5.3c1.1-3,2.9,0.8,4.3-4.6c1.7-2.4,1-4.5,1.3-7.4c-0.6-3.2,2.6-4.6,4-6.3   c0.1-3.6,7.1,2.6,7.3-1.5c-0.2-0.8-1.4-2.9,3.4-2.7c2.1-0.6,0.7-2.7-0.9-5.3c2.2-1,2.6-4.8,1.5-7.1c-2.1-3.9-3.7-2.3-5.5-2.9   c-2.9-2.5-8.2-2.5-7.5-7.6c-1.7-3.6-2.4-6.3-2.6-10.1c-1-3.6-4.1-4.1-1.2-7.3c0.5-4,2.2-7.1,6-8.4c0.6-5.1,7.5-2,7.3-6.8   c1.7-3.3,5.4-3.4,8.5-5.8c2.9-2.3,2.9-6.3,5.9-7.6c1.5-0.4,4.4-3.2,2.4,1.6c2.3,1.3,1.4,3.4,5.2,3.2c3.2-1.5,5.2,1.8,5,3.8   c3.2,0.4,4.3,3.4,6.4,4.9c1.7,2.1,3.9,3.4,6,4.3c1.4,3.1,1.2,6.3,2.3,8.7c1,1.7,2.3,5.1,3.1,7.6c0.8,3.6-0.5,6.6-0.9,8.9   c-1.7,2.6-1.8,5.3-1.7,8.4c-0.9,3.3,1.3,6.9,2.6,9.5c1.9,3,3.6,6.4,6.4,9.1c0.8,3.5,6.5,3.6,6.6,6.4c1.8-3.5,6,3,8.4-0.4   c2.5,4.7,4.1-0.3,8.7,1.3c2.9,2.5,7.8-1.4,9.2,3.2c3.5-2.4,4,2.6,7.9,1.8c2.7,2.4,4.5,3.3,7.3,4.4c0.2,3.4,4.3,2.3,5.2,6.3   c0.6,2.1,4,5.2,4.5,8.4c2.1,3.9,6.7,5.6,11,6.6c1.2,2.1,7.2,5.3,8.3,2.6c1.8,1.8,5.9,0.2,7.7,3.5c2.1,0.5,4.7,0.6,2.2,3   c-2-0.6-5.6-3.7-8-3.2c-4.2,0.6-8.6-1.2-12.4-1.7c-3.7,0.6-8.6-1.2-12.2-1c-3.2-0.3-6.2,3.8-9.6,1.9c-3.7,1-6.2,4-10.7,3.2   c-3.1,1.3-9,1.5-9.3,0.9c-1.5,0.9-5.4-1-6.4,0.9c-3.2,0.1-6.2,2.8-9.7,2.2c-3.6,0.4-4.7,3.8-7.5,5.5c-4.6-2.8-5.3,2.6-8.4,1.6   c-2.4,1.2-4.3,4.1-7.4,3c-2.1,1.6-2.4,1.6-4.6,0.6c-4.4-0.5-5.3,2.8-8.5,4.1c-3.3-0.4-4.3,0.2-6.9,1.6c-2.3-1.3-5.2-1.7-7.9-2.9   c-3.1-1.6-11.3,1.1-9.8-4.5c-2.7-2.8-6.1,2.5-8.5-1.3c-3.6-0.9,0.2-2.6-2.1-3.6c0.6-4.3-3-4.1-3.6-7.7c-3.4-3-2.7-4.3-2.1-7.5   c-0.5-3.5-0.2-7-1.2-10.1C1172.2,2669.6,1165.1,2670.2,1167.7,2668.1z" /><!-- path id="Guyane" d="M2377,2723.3c4.4-3.1,8.9-6.1,13.3-9.2c1-4.3,0.7-8.9,2.4-13.1c1.5-4.3-3.4-7.3-2.7-11.5
		c-1.4-6.6-3.5-12.9-5.4-19.4c-2.8-1.6-6.3-2.7-8.6-4.7c-1.1-2.3-0.6-6-3.7-6.5c-3.3-1.5-6.6-3-9.9-4.5c-1.5,3.7-0.2,8-1.1,11.6
		c-2.1,3.1-4.3,0.2-4.4-2.4c-1.8-5.1-3.1-10.6-5.3-15.4c-3.7-3.3-9-4.1-12.7-7.1c-1.8-1.7-0.9-5.5-4.2-5.6c-1.6,0.1-6.7,2.8-5.4-0.2
		c2.5-1.6,3.5-4.1,0.1-4.8c-1.7-1.4-1.2-6.3-3.9-5.2c-2.7,0.1-2.6,6.5-4.7,3.7c-0.9-4.4-5.3-6.6-7.9-9.9c-3.1-2.6-6-5.7-9.5-7.6
		c-2.8-0.4-5-1.7-6.5-4.2c-1.6-2.2-2.4-4.6-5.4-5.5c-5.7-3.8-11.5-7.5-17.5-11c-0.2-2.9-1.8-5.1-4-6.9c-6.1-6.2-12.2-12.4-18.3-18.6
		c-1.6,0.4-8-0.9-5.9,0.8c4,2.6-1.7,0.5-3.5,0.4c-2.9-0.5-5.8-1.8-8.6-1.7c-2.7,1-5,4.5-8,2.8c-4-1.2-8-3-12.1-3.8
		c-3,0.5-6.1,0.9-9.1,1.4c-1.4-2.7-3.3-5-6.4-5.5c-10.1-3.9-20.2-8.2-30.3-11.8c-2.9-0.4-6.5,1.2-8.2-1.9c-1.1-0.7-7.9-0.9-5.4,0.2
		c4.6,2.1-0.2,1.5-2.7,1.5c-1.4,0.9,0.5,4.7,0.1,6.9c0.5,2.8-1.8,4.6,0.2,6.6c0.3,4.3-5,5.8-6.1,9.6c-3.3,3.5-6.5,7.4-7,12.4
		c-0.4,3-4.2,3.8-6.2,5.7c-3.1,2.2-6.4,4.2-8.4,7.6c-4.6,6-10.5,11.2-13.9,17.9c-1.5,5.6-3.2,11.2-4.9,16.7c0,5.5,0,11,0,16.5
		c2.4,1.3,5.4,2.2,4.9,5.5c0.4,2.9,1.3,5.6,2,8.4c0,2.2-1.7,4.6-3.3,6.6c-1.5,2.4,0.4,4.7,0.2,7.2c0.3,3.1,0.6,6.1,0.4,9.4
		c0.4,1.8,5.6,1,5.1,4.3c-0.7,4.4,0.1,9-1.7,13.2c-1.1,2.7,3.4,3.5,4.9,5.3c3.5,1.2,2.2,3.9,1.1,6.5c-1.9,2.8-0.4,4.7,1.9,6.5
		c3.4,2.7,0.8,8.3,4.2,11.2c2.6,2.8,6.3,4.7,8.7,7.6c-0.2,3.7,2.8,3.5,5.6,3.6c2.8,0,2.8,3.7,4,5.1c2.5,4.1,5,8.3,7.5,12.4
		c2.8-3.3,3.7-0.4,4.5,2.6c1.4,2.5-3.2,3.7-1.6,6.8c0.4,2.8-0.6,5-0.6,7.6c-0.3,2.6,1.1,6-2.2,7c-2.8,0.8-2.7,4-1.8,6
		c0.8,3.2-0.8,5.1-3.6,6.4c-3.5,2.7-7.6,4.9-10.7,7.9c-1.1,2.6-1.1,5.3-1,8c3.7,0.2,2.3,3.8,2.4,6.3c0.5,2.2-1.2,6.5,0.7,7.3
		c0,5.3,0,10.6,0,16c-3.4,4.9-5.5,10.7-8.9,15.7c-4.7,7.7-8.6,15.8-12.8,23.8c-2.2,0.6-6.5-1-7.3,1c-0.8,2.3-1.7,4.4-2.6,6.8
		c0.2,4.1-3.5,1.2-5.6,1.2c-3.3-1.3-5.3,2.4-0.9,1.9c3.7-0.9,3.5,2.7,4.3,5.3c0,3.1,2.4,4.6,4.8,6.1c2,2.1,4.6,2.3,7.4,2.1
		c2.7,0,5.7-0.7,6.3,2.7c0.6,3.5,4,2.1,6.5,2.3c2.5-0.4,5.1,1.7,7.2-0.6c2.3-3.3,3.9-0.2,5.5,1.9c1.4,2.9,5.1,1.2,7.8,1.6
		c1.3-2.6,2.5-5.2,3.8-7.9c1.9,3.6,4-0.7,6.1-2c3.7-3.1,7-6.7,10.5-10.1c2.2-0.6,6.5,1.5,6.8-1.7c0.2-3.5,2.5-4.1,5.5-3.5
		c3.8-0.9,1.5,3.7,1.2,5.7c3.8,0.9,7.6,2.7,11.4,3.1c2.4-2.4,4.7,0.1,7.1,1.3c3.6,1.5,7.8-0.2,11.6-0.2c2.5-0.5,5.8,0.3,6.8-2.7
		c1.8-1.5,2.8-5.7,5.1-5.5c3,0.7,4.7,2.4,4.4,5.6c1.5,1.7,4.7,2.3,6.8,3.5c0.5,1.6-4.6,3.1-3.2,5.7c0,3.1,4.6,0.1,6.6,0.4
		c3.6-0.4,7.3-2.2,10.5,0.2c3,1.4,6,3.1,9.4,2.5c3.2,0,6.5,0,9.7,0c2.7-3.8,5.1-8,8-11.6c6.1-3.4,12.5-6.5,18.4-10.2
		c3.2-4.7,7-9.2,9.8-14c0.2-4.5-0.5-9.2,0.4-13.5c3.7-8.2,7.4-16.3,11.2-24.5c2.9,0.5,6-0.1,3.6-3.5c1.7-4.7,3.7-9.4,5.5-14.2
		c-0.8-2.5-3-4.9-1.2-7.4c1.7-4.5,5.3-8,7.8-12c3.4,1.1,4.3-1.7,5.4-4.3c5.6-12.1,12.3-23.5,17.8-35.6c0.9-2.6,1.9-5.2,2.8-7.8
		c2.3-0.3,6.9,1.3,4.8-2.6c-1-2.7,0.4-4.9,2.6-6.5c2.3-2.2,4.8-4.3,5.6-7.5c1.9-2.3,4.8-4.2,6.2-6.6
		C2378.4,2725.1,2375.9,2724.6,2377,2723.3z"/ --><path
       id="Martinique"
       d="M1724.4,2862.6l-1.1,1.2L1724.4,2862.6L1724.4,2862.6z M1873,2887.8C1876.1,2889,1873.4,2886,1873,2887.8z    M1836.1,2851.1C1835.2,2852.5,1835.4,2849.5,1836.1,2851.1z M1808.4,2621.4C1807.2,2621.4,1809.5,2620.6,1808.4,2621.4z    M1845.3,2613.1C1844.8,2613.9,1844.4,2611.9,1845.3,2613.1z M1800.2,2646.3C1803.1,2645.3,1799.9,2648.7,1800.2,2646.3z    M1839.5,2681.4C1839.3,2682.7,1838.2,2680.6,1839.5,2681.4z M1839.4,2689.4C1838.8,2690.6,1838.8,2687.9,1839.4,2689.4z    M1839.9,2589.3C1838.4,2590.4,1840.5,2587.8,1839.9,2589.3z M1862.8,2683.2C1863.2,2685.4,1860.9,2681.2,1862.8,2683.2z    M1586.2,2563C1585.6,2563.8,1586.1,2562,1586.2,2563z M1588.5,2564.4l-0.2,0L1588.5,2564.4z M1705.9,2561.1l-0.2,0.1   L1705.9,2561.1z M1825.5,2682C1826.3,2681.3,1825.8,2683.1,1825.5,2682z M1694.6,2787.8C1690.7,2787.2,1697.8,2785.2,1694.6,2787.8   z M1726.3,2787.3C1727.3,2787.6,1726.2,2786.4,1726.3,2787.3z M1724.8,2787.8C1724.6,2788.7,1724.2,2787.2,1724.8,2787.8z    M1749.5,2782.7C1750.5,2781.1,1747.4,2783,1749.5,2782.7z M1738.8,2782.2C1729.3,2784.8,1744.6,2786.5,1738.8,2782.2z    M1676.8,2751.1C1676.5,2754.5,1680.9,2750.1,1676.8,2751.1z M1778,2614.1C1777.1,2618.1,1782,2614.8,1778,2614.1z M1759,2603.2   C1759.2,2607.8,1764.1,2602.5,1759,2603.2z M1836.7,2691.3C1835.6,2694.9,1841.1,2691.4,1836.7,2691.3z M1836.3,2677.9   C1835.3,2683.9,1840.5,2679.1,1836.3,2677.9z M1823.5,2679.3C1822.5,2684.2,1829,2678.4,1823.5,2679.3z M1817.7,2678.9   C1813.2,2683.3,1821.2,2681.7,1817.7,2678.9z M1826.2,2672.2c2.1,9.2,21.5,1.5,5.6,0.6l-2.8,0.1L1826.2,2672.2L1826.2,2672.2z    M1850.9,2739.4C1848.2,2743.5,1855.3,2740,1850.9,2739.4z M1859.4,2733.9C1845.7,2737.5,1867.1,2741.5,1859.4,2733.9z    M1863,2723.9C1856.9,2728.7,1867.7,2728.1,1863,2723.9z M1859,2722.8C1853.4,2728.1,1863.4,2725.1,1859,2722.8z M1854.5,2728.3   C1844.6,2730.6,1856,2734.4,1854.5,2728.3z M1832.9,2718.5C1829.3,2727.1,1842.1,2719.3,1832.9,2718.5z M1871.9,2767.2   C1863.3,2770.2,1875.9,2771.9,1871.9,2767.2z M1847.8,2901C1844.8,2907.5,1853.1,2903,1847.8,2901z M1874.9,2881.2   C1869.7,2884.9,1878.5,2883.7,1874.9,2881.2L1874.9,2881.2z M1877,2871.6C1872.4,2876.9,1885.6,2871.9,1877,2871.6z M1751.7,2842.9   c8.3,9.8,6.1-9.4,10.4-2.9c6.2-13.5,5.1,12.1,12.7,1.4c12.7,7.2,27.3,7.2,40.2,3.3c1.8,10.8,14.6,19.6,19.1,5.2c5-5,8-7.4,9.8-4.4   c6.2-4.3-1.7,6.3,6,0.9c2.7,8.5-7.9,6.6-8.6,12.2c-10.2-3.8,2.4,14.2-8.3,18c-4.4,9.4,9.5,26.7,22.7,21.4   c-0.1-7.1,15.3-11.9,11.9-14.4c-7.5-5.7-4.3-9.9,3.1-4.8c7.4-8.4,12-28.5,18.9-28.8c-5.5-3.3-10.9-12.9-2.5-10.1   c8-12.3-13.1-16.1-6.2-28.8c-12.7,2.8-9.3-8-0.5-9.8c3.3-8.3-14.4-4.5-2.1-9c-7.2-7.8-9.8-11.6-2.6-20.8c4.3-8.8-16.7,12-7.8-1.4   c-10.6,6.4,2.9-8.7-6.9-1.9c-8.7-5.1,13.2-7.8-1-8.3c6.8-4.3-1.6-12.9-7.4-7.6c-11.8-0.5-0.9-12.7-11.7-16.7   c16-10.6-28.1,1.5-10.4-13.8c-3.9-6.9,7.6-9.3-3.4-9.3c-15.8-5.4,21.7-6.1,7.4-17.4c-7,9.4-13.3-5.4-21.8,3.1   c-10.4,19.2-28.3-21.8-6.5-12.3c-8-11.5,21.7-5.1,16.9-18.1c-12,8.5-5-17-16-5.1c-13.9,4.5,6.8-15.7-6.5-7.1   c-4.8,5.7-12.1-10.9-3-11.6c-13.8-10.7,18-17.6,20.2-2.3c5,4.8,22.1,1,9.2-6.5c12.7-3.3-7.7-15.9,8.3-15.4   c5.2,2.4,6.2,15.1,8.8,1.4c2.4-14.3-15-10.6-20.8-2.3c-9-0.4-10.9,9.8-21.5,4.7c-12.7-2-14,22.1-22.3,15.5   c-2.9-13.5-11.6-25.7-19.9-30.6c-12.6-4.4-3.8-27-18.8-19.9c-5.5-14.1-16.2-22.5-30.3-20.6c-14.3-9.1-28-20.5-44.1-26.8   c-15.4-6.5-35.6-8.5-49.9,1.1c-16.7,4-26,18.4-30.7,34.2c-3,19.5,12.4,31.2,23.8,43.4c11.1,9.3,18,21.4,9.3,35.4   c-5.3,20.3,15.9,34,21.5,51.7c9.9,10.1,21.1,15.4,33.5,22.2c6.6,11.2,13.3,19.2,25.6,16.3c7.8-2.7,9.6,8.6,15.2,2.5   c1.3,8.5,5.5-0.9,9.8,1.4c-6.8-12.6,20.4-16.1,9.2-3.6c12.3-0.1-8.5,12.6,6.8,13.9c1,4.1,4.5,2.8,2.4,11.4   c4.7,5.5,19.6,5.4,10.4,12.4c3.5,2.6-14.2,12.8-16.4,7.3c-5.6,4.3-13.3-2.4-15.6-5.2c9.8-8.1-0.9-6-6-5.7c2.3-9.6-5.6-3-4.1,1.6   c-7.8,10.1-21.3,6.5-26.3,20c-6.4,6.3-8.1,16.8,4.4,14.7c5.5,5.4-9.5,8.4,3,12.3c5,4.3-5.4,17.5,7.4,17.2   c8.2,14.9,19.1,7.6,22.4-4.8c7.4-9.4,18.8-2.8,24.9-0.5C1749.5,2834.2,1751,2837.8,1751.7,2842.9z" /><!--path id="La-reunion" d="M2461.6,2685.9c-0.7,2.9,2.6,4.2,4,6.2c5.2,5.3,8.7,11.9,13.1,17.8c3.6,4.7,7.8,8.8,11.6,13.3
		c4.2,1.4,8.8,2,12.7,3.9c3.7,2.5,7.4,5,11.1,7.4c1.8,6,3.9,11.9,5.5,17.9c0.9,3.1-2.8,3-4.8,4.1c-2.9,0.5-2.3,4.1-3.4,6.3
		c-3,10.7-6.9,21.1-10.6,31.6c1.4,16.7,3.1,33.4,4.2,50c-0.3,2.2-3.1,3.4-4.4,5.3c-4.5,4.5-9.1,9-13.6,13.5
		c-16.6,1.5-33.2,2.9-49.8,4.4c-1.3,2.4-2.6,4.9-3.9,7.3c-12.3,0.3-24.6,0.7-36.9,1c-3-2.3-5.8-5.2-9-7.2
		c-8.4-0.7-16.9-1.1-25.2-1.9c-14.3-5.5-28.6-11.3-43-16.5c-2.9,0.8-3.8-2-5.3-3.8c-1.3-3-4.9-2.4-7.5-3.4
		c-4.1-1.1-8.6-1.6-12.4-3.2c-2.6-3.8-4.9-8-7.7-11.6c-4.2-2.3-8.1-5.2-12.6-7c-7.5-2.1-15-4.2-22.6-6.3c-2.1-3.6-4.3-7.2-5-11.4
		c-0.3-3.1-3.6-4.4-5.7-6.2c-4.4-2.6-8.8-5.2-13.3-7.9c-1.8-5-3-10.4-5.1-15.3c-2.3-1.9-1.8-4-0.2-6.2c1-2.5,2.9-4.9,3.4-7.4
		c-1.4-4.7-2.8-9.5-4.2-14.2c-2.3-2.1-5.9-3.3-6.2-6.8c-2.2-6-5.5-11.5-8.1-17.3c-6.3-6.6-12.6-13.1-18.9-19.7
		c0.1-4.8,0.2-9.6,0.3-14.4c-0.9-1.9-4-3.6-3.5-5.6c1.2-3,3-5.5,5.5-7.5c1.9-1.6,3.5-3.9,5.6-5c2.5-0.1,5.2,0.5,7.5-0.1
		c3.7-3.2,7.9-6,11.3-9.5c2.3-3.1,3.7-6.6,4.5-10.4c0.7-2.3,1.8-4.6,0.3-6.8c-0.7-2.8-2.5-5.6-2.5-8.4c1.5-6.4,3-12.8,4.6-19.2
		c5.6,1.2,11.2,2.3,16.8,3.5c9.9-7.1,20-13.8,29.7-21.2c4.2-3.8,7.8-8.4,13.1-10.7c3.7-1.7,8-1.6,11.9-2.5
		c5.2-0.9,10.5-0.7,15.7-1.4c2.7,2.3,5.2,5.3,8.1,7.1c9.2,0.4,18.3-0.1,27.5,0.3c4.5,0.1,8.4,2.4,12.5,3.8
		c11.5,0.8,22.9,1.6,34.4,2.4c2.2,2.2,4,5.1,6.4,6.9c6.4,1,12.9,2,19.3,2.9c6.7,7,13.7,13.7,19.5,21.6c2.2,2.5,5.2,4.8,7,7.5
		c-0.2,7.2-0.5,14.4-0.7,21.7c3,4.8,5,10.2,9.4,13.9c3.2,3.6,7.1,6.9,9.9,10.6C2461.8,2683.5,2462.4,2684.8,2461.6,2685.9z"/--></g><g
     id="Departments"
     transform="matrix(0.195088,0,0,0.195088,-2.2694796,-40.76319)"><path
       id="dep"
       fill="none"
       stroke="#FFFFFF"
       stroke-width="2.4339"
       stroke-linejoin="bevel"
       stroke-opacity="0.2749"
       d="   M1980.2,715.9c13.6-6.4,5.5-4.5,2.4-12.8c6.5,6.5-15.2-22.1-12.8-3.2c16.2,8.9-22-4.8-1.6-11.1c8.9,8.7,7.8-17.5-1.2-14.2   c-11.3-13.5,22.3-3.6,16.3-23.4c-6.4-13.1,23.3-6.6,5.4-14.9c-8.8-9.5,10-24.4-4.5-37.1c1.9-7.9,4.3-7.8,3.5-19 M1967.2,694.5   C1972.7,691.3,1963.6,690.9,1967.2,694.5z M2079.4,1450.7c-9.6-5-35.3-16-23.2-19.6c-16.7,6.7-8.7-8-20.2-12.8   c-11.1,9.5-20.6-0.1-32,0.9c-24.4-0.6-20.3-10-29.8-8.8c-16.1-12.1-19.1-8.8-19.6-22.4c16.1-14.4-21.5-16.7-17,1.4   c-14-11.7-14.2,3.7-22.6,12.9c-1.7,9.3-12.3,2.1-15.8-0.6 M2408.7,1958.3c-9.5-9-15.6-32.3-33.9-20.3c5.3-14,15.5-29.5-5.3-30.3   c7.2-23.1,2.4-20.1-2-38.6 M2598.7,1744.9c-15,3.2-26.2,16-38.9,26.6c-9,6.1-10.3,30.5-30.7,20.6c-13.1,3.7-19.9-19.7-28.2-13.2   c8.1,18-28.5-1.4-11.7,21.9c-14.9,10.7-17.3-19.9-24.4-14.6c-7.1,3.2-13.3,12.5-25.2,19.3c-10.8,14.2-10,48.2-5.7,25.4   c5.4,21.6-16.3-20.4-14,4.8c13.7,12.4,15.1,21.1-6.5,11.7c-6.8-1.6-12.1,6.1-17.9,4.4 M2596.2,2015.8c-19.8-3.7,8.2-32.1-12.7-29.1   c-18.9-4.7-7.2-27.9-22.3-31.7c-29.1-2.6,7.3-16.1-7.2-20c1.7-18.4,10.5-6.4,26.8-19.6c19.1,14.5,17.4-4,2.1-9.1   c-9.6-13.2-22.4-49.1-17.3-33.1c-16.6-14.3-0.1-38.1,7.3-43.8c0.5-10.8,9.4-10.9,16.1-16.7 M2205.2,1610.9   c13.1,2.5,26-19.9,22.3-12.8c-2.6-9.1,29-26,22.4-7.4c15.4,8.8,0.8,28.6,10.6,39c-9.9,12,11.2,21,1.5,33   c11.8,16.1,3.2,35.9-6.5,47.7c-13.3,12.7,4.5,37.4-10.9,50.6c-10.3,8.9-0.4,28.7-10.4,41.6c-0.4,5.6-4.6,10.8-2,17.2 M2280,688.4   c-7.7-17.5-13.9,10.1-23-2.7c-11.9-5-36.4-17.8-31.9-4.6c-4.3-14-33.3,9.7-37.6-12.5c-14.4,1.8-19.6-18.5-33.3-18.2   c-6-1.2-12.3,1.1-18.2-0.9 M2240.6,969c-10.3-3.5-32.9-2-24.2,12.1c-12.3,5.8-39.1-6.9-41.3,9.7 M1807.6,1861.5   c0.7-11.2-8.1-24.9-13.1-14.5c19.6-15.3-1.9-12.4-7.6-25.2c-1.4-3.7,5.8-1.7,3.4-4.2 M2246.1,1913.5c28.7-1.1,43.4,22.8,61.4,38.1   c17.3,3,35.6,5.4,51.3,18.2c20.1,13.7,37.7-4.5,52.9-9.5c16.2,16.4-20.6,15.9-19.1,33.6c18.5,5.9-0.1,29.2,20.5,37.3   c-16.9-5.6-22.6,26.4-9.4,22.2c17.8,16.3-15.4,12.7-8.5,31.2 M1890.3,1555c8.6,4.4,37.4,13.6,26.4,9.3c0.2,13.5,39,8.7,27.6,10.6   c13.6,0.8,11,20.5,27.3,24.2c5.5-5,19.1-23.1,11.7-8.6c3.3,12.6,20.9,9.6,18.8,9.9c7.1,12.6,17.6,49.1,13.2,36.7   c21.8,8-9.5-1.5,1.3,15.2c-0.5,14.4,14.8,5.4,9.7,19.6 M1490.8,1621.2c5.8-19.9-27.2-4.2-18.7-22.9c-15.9-10.4-25.6,4.5-28.3-8.3   c11.8-7.6-2.7-22.4-1.9-13.7c16.7-3.2,1.4-28.8,3.4-20.3c12.9-7.9-8.7-18.9-6.5-15.6c6.9-8.4-10.3-19.1-17.6-19.1   c6-6.6,7.7-34.8-3.4-26.6c-1.4-11.9,20.7-7.5,28.4-15.4c7,5.1,25.7,0.8,20.2,4c3.4-14,4.5-20.8-0.4-31.7c15.1,1.3,4.5-11.7,17.4-16   c-5.2-16.1,23.7-34.1,18.4-22.5c5.6-4.3,34.5-3.4,24,0.3c10.5,10.5,27.4,6.5,38.7,7.3c2.4-4.2-9.6-15.4,6.8-16.4   c5.1,17.2,14.5,11,28.5,8c-5.1-13.5,16-8.6,21.7-7.2 M1370.4,1364.6c-1.3,14.6,21.9,40.2,15.8,31.3c9.4,6.1,5.5,4.2,19.9,8.3   c1.7,10.5,21.5,19.9,20,11.1c10.6-5,19,7.3,32.4,7.8c5.1,4.9,6.2,12.9,15.2,18.6 M1690,1562.9c1.9-18.1,17.7,0.7,22.8-14.9   c9.8-7.3,35.6-6.3,24.1-10.6c13.7-1.5,22.3-21.4,36.4-23.9c0.3-12.1,22.3,8.5,19.8-9.2 M2857.9,2271.7c15.9,2.1,28.7,17.4,46,12   c-0.9,22.3,27.8,21.8,32.5,37.8c8.6,10.3,7.1,32.8,24.2,31.9c-0.4,14.9,3.5,45.7,3.1,35.2c-4.6,17,22.6,3.4,25.8,3.6    M2146.8,1175.8c-3.4-9.6,4.5-1.7,10.5-6.3 M921.4,930.8c22.8,11.5-35.8-80,5.5-23.2c-1.5-5.6-21.8-34.1-11.7-25.5   c14.5-13-1.7-12.2,1.7-23.7c15-12.8-15.7-38.1-9.8-27c-3.6-7.9-0.7-9.2,2.9-14.4 M1178.4,850.6c13.4-15.1,0.4,32.9,0.9,20.1   c5.7,20.7-5.5,44-3.1,35.6c-13.3-4.1-39.8,5.5-29.5,7c-8,11.5-17,40-14.2,26.9c-3.1-1.1-7-2.3-7.2,2.6 M1887.7,1495.3   c-6.4,15.5-24.1-2.8-27.4,15.5c-3.5,10.2-61.1-57.7-23.3-14.2c-8.9,10.4-20.2-17.5-28.2,0c-9.5,7.6-21.9,9.8-19.2-6.1   c10.3-11.7-14.8-31.5-15.6-21.7c-4.3-5.3-18.9,10.6-28.2-1.2c-2-7,15.5-15.9-3.4-16.9c-16.5,7.2,0.6-23.3-2-15.3   c-10.5-2.9,0.1-21.9-12.7-25.7c3.2-11.1-23.5-26.1-14.9-20.2c-1.9-13.3,7.7-15.6,7-29.4c5.1-4.4-7.8-1.3-3.7-5.5 M1661.6,1762.8   c-5.7-13.1-25.4-19.7-33.4-4.8c-15.5-2.1,6.8-22.8-12.4-22.4c-6,6.8-26.7,3.2-26.3,0.5c-9.7,3.5-16.4,3.4-28.1,9   c-26.3,7.5-6.6-15.2-24-24.9 M2399.3,1143.1c13.9-0.9,28.9-15.1,37-14.7c1.7-6.4,14.6,4.4,20.2-4.8c8.5-5.2,14.4-17.8,11-10.2   c12.2,6.5,6-14.5,17-4.6c0.8-3.6,11.2-7.6,11.9-17.6c7.2-3.7,22.1-12.9,26.9,0.4c3.1-8.9,22,6,14.9-9.8c3.9-2.3,20.4,1.9,14.5-11.2   c4.9,0.4,19.2,17.1,23.5,3.9 M1567.6,631.9c7.6,1.2,21,14.3,23.1,12.6c2.6,8.5,22.8,4.9,27.5,0.1c4.6,8.6,22,7.2,17.6,9.8   c11.7,14.6,0.3,23-7.8,14.3c9.8,3.9,23.9,18.4,18.6,12.1c12.8,10.4,24.3-14.2,17.4-9.2c9.2-1.6,13.8-9,19-9.8   c17.1,7.4,11.7-21.2,22.4-19.8c5.5-11.8,26.7,2.5,37.5,1.5c4.4,5.8,16,9.5,20.6,5.2 M1732.6,977.7c-18.1-14.9-14.5,11.8-34.2,6   c-9.5-5.7-21.6-1.1-22.7-16.6c-15.8-4.3-11.8-26.2-21.8-19.2c8-12.1-21.8,8.5-29.7,2 M2028.3,1856.6c10.7,11.1,33.7,18.1,43.6,6.1   c-4-22.3,19,6.7,29.5,1.6c13.5-4.3,27.3-3.6,18.2-17.4c10.5-12.1-7.3-13.1-0.4-24.3c-4.9-12.7-13.9-19,4.5-25   c0.1-2.3,0.9-7,4.2-7.7 M1759.5,2063.4c-4.9,15.3-25.8,12.8-19.6,4.2c-5-8.4-16.4-10-9.7,1.4c3.4,9.4-17.5,13-12.9-2.2   c-8.6-24.3-30-2.6-13.9,2.4c17,3.5-5.3,15.9-11.5,13.8c-20.3,3.9-7.3,24.8,2.3,18.1c-9,16.7-16.3-18.1-27.9-7.8   c-11.5,7.7-19,0-15.8,14.4c-8.9,5.7,2.4,14.2,0.1,17.4c-15.6,15.2-20.2,15.5-22.3,18.7c-10,0.3,1,15.6,0.3,21.2 M1568.8,2194.6   c-6-8.4-5.3-29.1-0.3-39.9c14.6,13.9,18-14.9,23-21c-5.6-1.3-0.5-21.1-8-11.8c-16.4,8-6.3-19.5-3.7-12.1c-6.7-9.3-29.9-9.1-10-23.5   c3.1-11.1,12.5-29.5,12.3-18.8c10.6-13,3.9-10.3,18.2-21.7c9-3.9,8.1-20.3,18.7-11.6c10.5-10.3,22.8,6.3,29.7,7.8   c0.3-9.8,6.1-13.3,7.2-22.3c1.1-6.6,13.6-18.4,8.4-18.3c2.6,1,28.3-13.6,10.7-14.5c-3.8-11.3-23.2-21.2-16.1-15.1   c3-11.6-16.5-14-16.3-27.3c13.6-1,49-16.6,29.7-6.1c12.2,12.7,19.8,7.7,22.9,4.2c22.4-3.5,14.7-17.5,6-13.7c4-9.7,18,2,24.1-11.3   c5.9,4.2,15.8-8.2,12.8,8c5.4,12.4,16,15.5,16.7,29.7c11.6,10.6-4.8,6.7,11.3,18c-17.7,14.1,19,14.6,20.6,27.1   c2.7,6.1,23.4,23.7,24.9,8.7c17.4-10.6-6.3,13.7,2.1,16.6 M1608.4,1880.9c0.9,13.7,21.2,16.9,18.5,7c-9.3,0.7-4.8,16.3-15.5,22.2   c5.3,5.2,27.9,1.3,20,15.3c12.3,4.4-7.6,24.1,10.8,19.6 M1586.9,2054.8c-12.6-7.1-23.8-3.9-34-6.1c-5.8-3.1-26.9-12.9-19.5-10.4   c-13.6,8.6-17.6-2.4-21.3-11.8c8.4-1.9-8.5-26-8.8-19.2c-14.7,0.3-12.9-35.7-28.5-15 M1483.7,1641.7c21.8-13.2,8.3,35.2,12.3,25.6   c-9.4,6.5,4.8,25.8-11.3,32.1c11,3.8,31,8.4,23.8,7.4c13.5,4.1,37.6-6.5,27.6-10c1.5,6.3-2.1,33.9-2.6,25.4   c-13.3-0.7-30.8,6.5-19,5.2c-6.7,1.3-10.2,14.5,1.7,13.9c-3,14.1,5.5,5.6-7.4,17.6c-14.5,17.9-18.2,4.8-17.8,16.6   c-7,12.1,2.7,25,1.1,35.6c-29.3,8.7-0.7,6.7-10.3,23.5c-16.3,15.1-23.4,4.3-27.9,2.6c9,23.5-42,14.5-24.8-7.3   c-10.7-7.5-45.4-35.6-38.7-28.1c-1.2-23.1-26.3,2.4-39.8-4.4c-36.3,7.1-5.9-12.4-29.7-21.9c-5.1-2-18.6,13.1-30.7,12.6    M2026,1915.6c16,1.6,7.9,16.3,25.8,6c11.7,20.7,19.2,3.8,18.7-2.4c5.2-3.9,16.7-28,25.1-10c2.8,12.4,6.5,18.4,19.5,17.1   c13.7,5.1,1.4,16.7,18.2,16c9.2,12.4,23.6,15.9,25.7,36.2c-0.8,21.1-27.5,4.1-14.4,19.4 M2009.8,2079.5   c-11.4-16.2-26.6-9.3-40.2-19c2.9-14.3-24.4,0.1-18.8-18.5c-4.1-3.6-22.8,29.6-16.1,21.2c-8,13.7-15.4-11.3-17.5-9   c-7.9,14.2-16-4.2-21-9.4c-2.5-11.1,13.8-10.4,3.2-15.8 M1169.3,843.4c-5.1,10.1-12.1-3.4-19.3-9.5 M1628.5,1262.3   c20.5,2.6,23.4-2.7,24-22.1c3.6-17.8,3.6-49.4,27.9-43.2c15,11.4,14.5-18.3,25.9-17.7c-4.4-17.2,0.2-24.7,18.7-30.1   c12.4,9.3,36.2-5.3,23.4-7.8c13.7-0.9,21.3,6.5,35,12.3c0.4,15-19.7,23.3,6.3,27c10.9-5.5,28,2.3,24.3-0.6   c6.1-4.2-1.6,76.7,10.2,26.6c-13.5,16.9,23.8,16.5-0.7,27.9c-3.1,22.4-1.3,28,0.2,33.8c12.2,7.8,16.4,33.5,15,25.2   c-13.2,11.3,14.2,29.6-5.4,35.8l0.6,5.3l2,2.4 M2303.9,1477.8c4.5-2.4,15.4,15.3,24.7,6.7c6.5-15,18-32.2,28.8-9.7   c-4.9,11.2,20.1,24.2,20.7,32.6c-7-3.1,10.5,13.9,12.8,23.5c6.6,10.1,10.8,22.5,17.8,34.1c10.4-2.4,31.2,20.2,23.4,0.6   c2.4-26.3,37.2,1.9,23.9-1.9c9.7-2.9,15,28.3,19.5,19.7c6.5,8.5-16.3,19.2-5.9,32.8c-2.4,23.5,12.7,5.4,19.3,19.9 M2248.9,1581   c-1.3-8.7-0.3-12.9,0.1-20.8 M2415.7,1733c-11.8,0.2-39.3-19.7-30.9-11.3c-10-11.6-28.6-1-21.2-25.8c2.2-17.6,0.9-40.4-0.2-50.4   c-11.3,7.8-12.5,15.6-22.4,6.1c-9.2,7.1-18.1-12.1-28-1.5c-5.4-4.2,13.1-21,1.5-33.2c7.4-3.9-11.2-16.5-9.5-17.9   c-11,3.2-12.6-20.3-26.2-9.2c-10.4,9.4-11.5,3.3-22.9,7 M2370.6,1134.1c4.6,15,18.4,10,28.6,8.4c1.3,18.9,26.2,17.6,16.6,36.3   c-7.7,21.9-10.2-0.4-8.4,21.5c10.5-3,8.4-9.6,14.5,2c23,0.7,4.8,4.6,20.4,6.5c3.7,17.1-4.3,9.9,6.7,20.3   c0.5,13.5,14.2,5.8,22.9,17.8c25.6,16.7-24,22.6-8.7,39.4c-15.7,4.8,0,19.7,7.3,19 M1847.4,1061c-35.3,8.3-2,14.4-6,30.6   c17.2,1.9,2.4,26.4-10.3,18.9c-18-3.5,12.3,25.5-3.6,29.3c-24.8,0.6-31.2,4.4-34.8,7.5c9.2,4.3-4.2,12.8-9.1,6.3 M1701.8,1161.3   c-5.3-11.7-15.4-33.5-26.3-19.8c-20.5-8.9,1.9-23.7-12.3-36.3c19.1-4.5-17.8-18.5-1.3-32.9c-8.5-11.5-13,2-17.8-13.2   c-13.3,3.2-22.1,10.3-16.5-10.9c4.8-0.3-58.6-7.9-30.2-4.4c11.9,46.6-10.3-24.6-9.3,0.4 M1985.2,1583.6c15.3,3,21.6-9.1,32.8-14.8   c4.1,0.5,34.9-0.8,24.7,2.5c11-7.6,33.9,24,26.1,15.8c7.8-18.6,12.6,0.4,25.6-3.8c0.7-20.4,8.8,4.5,17.5-0.4 M1948.7,1084.2   c-16.9,12.5-20.8-11.7-30,8.6c-11.2-5.4-14-25.8-31.3-20.4c-11.6-9.6-25-7.4-40.1-11.3c-0.6-21-24-10.2-38.1-12.1   c-10.2,8.6-24.4-13-30.2,4.9c-11.3,10.7-12.2-19.4-22.1-20.1c-19.4,3.8-12-3.7-23.3-18.4c21.2-10.9,11.7-37.6,4-30.9   c3.4-6.6-14.3-23.6,5.5-17.8c6.8-17,23.3-2.5,34.4-13.5c16.2,8,14.5-16.9,21.1-18.5c11.3,1.6-0.7-15.2,9.5-27 M1842.3,1754   c-1.7,11.3-19.8,9.6-22.8,9.1c-7.6,2.8-21.8,15-24.9,20.2c-9.9-7.3-1.9,31.5-6.3,21c18,16.8-13,11.3-13.8,18.7   c-8.1-6.3-19.4,6.6-21.1,7.5c-4.2-1.1-18.3-8.9-10.8,8.8c-11.8,10.4-13.9-22.1-25,0.8c-11.1,12.5-28.6,2.7-19.4-12   c-9.2,7.5-17.6,4.6-21.5-2.3c-12.1-3.8,4.7-25.1-5.7-19.3c-1.3-6.4-8.5,3.7-11,2.2 M1502.2,1899.8c-11.8-14.8,28.9-38.4-6.6-34   c-12.8-13.2-32.6,7.4-28-22.1 M1292.6,1017.4c12.7,11.3,26,4.8,41.4,11.1c0.2-18.9,29.1-11.3,22.8-1.8c12.5,5.8,31,12.1,43.9,2.8   c7.5-10.8,18.7-1.2,28.5-0.7 M1306.9,1197.4c19-14.9-24.4-11.2-13.3-22.7c5-4.4,15.8-14.5,7-21.9c-6.6-9.9-29.1-17.9-24.1-18   c3-11.7,29.6-13.6,43.9-16c14.6,4.2,27.1-5.8,17.5-19.1c3.5-20.3-37-1.6-32-20.5c-15.8-8.8,42.8-3.2,13.9-14.4   c-22.1-1.5-12.5-26.9-30.1-31.7c8,0.4-1-5.1,1.6-7.9 M1311.9,664.7c-9.4,15.6,9.8,31.3,25.2,32.4c16.1-17.9,6.1,10.5,3.5,11.3   c11.4,10.5,2,3.9,9.5,13.3c-0.7,9.9-13.8,22.4-4.3,18.7c-2.5,22.4-31.4,4.1-25.8,21.2c18.6-0.7-14.2,20.2-10.9,16.8   c-10.7,2.2,19.8,21.6,14.8,14.7c12.5-3.5,22.1,9,35.1,2.4c-16,13.1,25.1,15.5,8.1,28.2c11.9,10.5-7.7,23.4-14.2,34.3 M2235.2,851   c-6.9-12.7-32-11-25.9-3.1c-16.2,1.7-36.4-15.1-27.8-29.6c-4.8-19.9-52.4-11.3-39.8-6.1c-8.9,10-38.5,29.3-28,22.7   c-10,3.5-2.9,22.5-17.9,17c-12.4-1-26.3-0.7-29.5-11.1c-5.1,0.5-5.3-7.6-8.9-10.3 M2240.6,969c-0.5-11.9-11-17.9,9.2-21.9   c18.4,8.6,9.3-11.8,16-21.6c-3.4-7.9-0.9-39.4-3.8-30.9c-13.6-7.1-22.5-10.1-26-22.8c-12.6-2.3,15.8-23.8,7-23.1   c19.4,6.8,7.3-15.1,21-22.3c-16.7,0.9-12.8-13.4,0-6.8c9.2-5,12.5-2.4,21.9-3.9 M2626.6,855.2c-16.8,0.5-27.9,17-40.4,21   c-6.2-1.4-14.3,11.2-25,0.2c-11.2,6.8-13.3-24.2-23-3.9c-2.1,4.5-26.2,7.7-23,6.9c-13,6.7-17.7-7.7-22.3-4.9   c-5,15.8-23.2-3.5-21.8,11.6c-8.8,9.8-24.7,8.4-16.2,3.1c-9.5,5.1-17.4,3.3-16.9-8.1c-1.3-13.2-14.8,5.2-9.4-7.5   c11.3-16.2-6.7-18.5-17.1-12.7c4.9-13.8-11.8-12.3-8.3-23.9c18.3-8.7,7.2-1.6,3.5-14.9c7.3-14.6-14-21.3,5.1-30.7   c-3-0.3,2.6-23.9,0.9-20c-32.7,6.7,73.7-85.7,10.7-19.5c-16.9-7.4,9.2-21.4-6.5-26.4c6.1-12.6-15.1-5.1-7.9-17.6   c1.5-13.3-5.6-9.7-6.1-22c12.3-12.2,3.5-35.5,2.7-24.9c-6.6-7.7-12.3-24.1-24.4-14.6c-7.9,3.6-29.6,8.7-14.4,2.7   c0.5-5.4-6.8-13.6-3.7-20.8 M2430.4,628.5c8.1,2.8,8.9,13.8,4.2,21.3c8.7,11.3,22.5,24.5,12.3,20.8c2.3,12.2,6.8,20.7-2.8,28   c14.9,7.2-3.8,9.5,2.3,19.6c-21.2-2.1-3.7,16.4,4.1,19.2c4.7,10.3,6,11.9,16.8,15.8c1.5,7,15.3,4.3,22.7,5.4   c12.7,3.4,7.4,13.3,3.4,20.5c11,5,2.4,2.3,10.8,11.9c6.2,4.7,17.8,0.3,24.1,10c15.5,0.6,31.3,15.8,26.8,13.1   c-4.5,9.6,16.3,0.8,17.2,11.3c13.8,3.7,43.9,10.5,32.7,7.1c3.4-0.4,12.4,19.3,14.6,17.4 M2360.5,632.1   C2367.1,618.8,2347.7,633.4,2360.5,632.1z M926.8,1026.8c-4.8-26.2,7.3-6.9,17.5-22.9c5.8,1.5,8-37.3-7.5-17.7   c-6.4-19-34.3,1.5-33-25.2c-11-9.1-11.6-21.2,7.9-26.5c13-3.9,33.3-7.2,33.1,5.6c13.8-10.8,17.7,3.2,32.9,0.7   c7.2-4.8,28.9-19.8,20.7-15.6c14.2,3.5,12.8,14.2,30.9,11.1c19.1,6.7,16.2,21,33.3,7.5c10.9,2.2-7,34.1,13.3,17.3   c14.9-7.7,5.6-27.1,23.1-26.8c14.5,10.9,15.7,9.3,30.1,13.1c-5.6,19,30.9,2.4,3.2,14.2c-22.2,20.7,20.9,6.6,23,26.9   c2.3,9.1-6.5,26.3,7.5,18.1c9.5,9.4-21.5,22.1-6,21.8c4.7,3.5-14,16-1.1,28.2c-2.2-0.4-1.4,1.9-0.3,2.1 M2145.2,1126   c11.8-8.5,13,31.1,4.3,22.7c11-8.1,18.4,10.3,12.2,19.6 M1983.1,500.1c3-6.6-0.7-14.5,7.2-20.9c-4.1-2.9,13.5-21.5,7.2-18.5   c2.3-11.3-20.9-10.9-26.3-11.5c4.7-1.9,16.3-10.5,3-16.6c-12.5-8.2-6.4-16.7,5.8-18.2c5.2-13.9-16.2,3.3-7.5-13.5   c-8.5-10.4-24.5,0.7-23.3-11.7c-17.3,7.2-18.5-17.8-13.8-11.9c13.6-7.6,13-20.1-3.6-17.8c6.3,18.9-10,3.1-22.2,10.5   c-10.4-7.6-23.3,1.3-35.2-12.2c-8.9,0.1-14.8-19.6-0.4-22.2c-10.9-6.5-31.6,1.3-32.5-19c-7.1-12.2-8.4-30.6-21.7-36.2    M1979.5,482.8c-11,6.6,5.8-10.5-4.3-7.1C1987.6,467.7,1982.9,476.2,1979.5,482.8z M1355.9,800.2c19.4-11.2,27.3-16.5,23.9-21.7   c14.5,10.9,30-6.1,45.4-5.1c13.2,14.1,9.3,9.7,16.8,3.7c11.2-3.7,28,14,27.7,3.3c10.8-0.8,21.1-10.7,30.6-18.2   c8-15.2,15.7,1.6,25.7-5.4c7.1-5.9,22.3-3.5,30-2.4 M1250.6,2004.7c9.5,0.2,23.7,13.7,39.5,2.8c4.8-13.4,28.7-1.1,13.1,2.4   c4.9,10.2,15.2-12.3,23.6,0.8c6.2-7.2,11.1-9.9,24.9-9.9c9.7-3.5,16.5-10.5,25.5,0.8c6.8-17.8,10.3,7,21.8-3.3   c2.5,8.2,29.7-20.8,17.7-2.1c3.7,4.1,41.1-4.5,25.4-1.6c2.9-0.3,3.9-5.2,9.3-3.2 M1835.7,2204c7.8,6.6,42.4-14.9,30.2-14.8   c-3.1-15.8-8.7-34.7,16.2-25.2c16.7-8.9,46.2,14.3,52.7-13.1c14.8-11.7,21,5.4,36.6,9.9 M2699.1,945.6c-22.8-7.5-29-24.7-22.7-22.2   c-16.5-7-27.5-26-23.1-17.5c-3.8-3.7-9.4-2.8-14.8-3.8 M2252.8,1394c9.1,9-9.2,17.7-3.8,27.2c-0.4,8.8-4.9,33.6,0.1,28.6   c16.8,11.1,2.6,1.5,19.8,8.6c6.6,7.7,2.6,26.3,19.2,20.1c17.9-1,8.5,19.5,10.9,10.1c9.9,5.3,20.6,15.6,3.2,20.6   c-11.3,11.7-8.6,17.8-25,16.1c-7.8,7.9-30.9,0.4-18.1,10.7c17.8,6.9-4,20.9-9.9,24.2c-2.2-13.8-25.8,1.9-14.1-20.8   c-0.2-7.9-2.9,4.1-13.5-6.3c-13-0.6-19-3.8-27.9-14.7c-11.5-7.7-5.4-35.3-3.7-27.1c-10.4-1.5,3.8-17.3,0.6-25.4   c-16.7-5.4-2.4-18.6-18.7-26.6c-12.9-4.1,17.9-4.2,1.2-9.6c-10.6-8.5,9-10.2,6.3-21.9c3.4-10.5,29.1-3.3,12.2-16.7   c1.6-3.3,9.7-5.1-1.3-7 M2069.2,1262c15.6-5,44.3-2.7,35.8,5.7c10.6-4.2,26.4-12.1,33.1-16.2c1.4-16,3.9-18.7-3.4-35   c-5.4-12.7-5.2-4.4,2.9-21.3c-2-18.1-3.9-28.1,11.6-20.6c8.6,11.2,10.3-17.4,17.9-1c21.4,6.7,7.2,19.3,24.7,11.6   c7,12.1,29,19.6,25,21.2c1.6,9.3,16,26.3,17.8,18.1c12.1,1.6,21-5.3,36.3-8.9c6-8.5,18.8,2.9,24.8-7.1c7.8,16.4,19.9-4.3,32.9,0.4    M1526.8,1063.9c-9.6,2.1-13.8,4.8-28.4,0.5c-8.4-8.3-22.8-17.6-29.8-6.1c-20.4-1.7-20-21.9-11.4-20.8   c-15.5,17.4-35.1-25.2-28.1-8.8c1.1-11.5-20.2-20.1,1.1-22.4c-4.2-9.9-9.5-17.8,9.7-18.6c13.1-8-17.8-27.1,6.3-29.1   c14.7-0.2,4.9-22.7,3.8-21.6c20-5.3,16.4-23.8,15.1-36.8c3.2-7,3.3-12.8,16.2-14.9 M2387.3,1524c6.6-4,15.5-11.5,12.3-22.3   c21.6,1.4,9-31.7,20.5-47c-0.9-1.4-2-4.3,0-5.5 M2574.6,1485.9c-20.3,27.7-11-8.1-31.6-3.2c-16.9-9.2,5-20.2-13.3-25.5   c-10.6,3.2-13.3,26.3-22.9,31.7c-0.9,15.2-20.6,23.8-25.5,14.6c-0.5,0.1-14-25.2-17.6-8c-6.1-1.6-23.2-0.6-20.2-13.5   c-3.5-5.2-18.4-0.4-16-16.4c-1.5-16.3-9.1-18.1-11.2-34.3c-0.1-14.7,25.8-16.4,14-18.8c-3.9-8.4,8.1-6.1,12.2-9.1 M1996.3,509.7   c2.3,7,3.5,10.7-7.4,20.1c0.8,15.3-11.5,7.5-7.7,19.6c-3.9,3.6-5.2,23-0.6,16.9c10.4,4.9,5,23.3-3.2,12.9   c0.3,14.9-18.1-9.5-16.1,10.1c-9.1-19.9-13-2.8-12.4-4c-4.4,6.2-16.6,2.1-13.6,15.9c-12-5.2-19-1.5-22.5,10   c-1-15.8-13.1-20.3-13.3-10.9c-13.3-5.3-13.2,0.5-24.6-9.7c-14.4,1.1-28.1-17.5-46-6.2c-12.6,1.9-12.6-6.1-25-6.9   c-0.8,2.2-27.6,8-20.2-3.7c-3.5-2.1-5.7-3.9-8.9-5.5 M1738.3,1914.8c7.5-6.3-12.1-12.6,10.6-10.5c4-11,17.1-16.1,7.5-28.7   c-8.7-14,19.7-0.5,18.9-4.7c11.6,2,4.2-11.4,20.2-6.3c-6-11.5,17.1,3.2,23-8.3c-0.1-1.6,17.8,7,15.9-1.6c20,2.8-7.8,14,20.8,8.4   c8.8,9.6,35.6,23.4,27.5,21.4c8.4,10.3,18.6,32,12.2,26.9c6.2,13.6,4.4,26.9,19.1,39.5c13.3,14.7,25.3-3.6,39.2,4.7   c5.7,0.7,1.4,7.7,5.2,11 M2408,1959.5c9.4-10.9,20.6,5.4,29.5-5.6c5.4,7.9,12.8,25.4,20.5,10.1c6.3-10.4,18.3-8.6,25.2-21.9   c14.5,11.8,28,18.9,35.9,1.4c16.4,2.3,15.1-1.9,29.8,1 M1172.7,1197.5c12.9,9.5,21.7,25,38.1,22.7c1.5,15.6,26.4,14.3,35.6,13.1   c7.1-8.4-14.6-28.1,4.3-38.5c13.2,4.9-5.7,37.3,17.5,21.4c8.6-6.9-1.1-26.6,14.5-22.1c3.6-20.7,24.2,11,38.8,8.6   c10.6-2.1,18.5-3,26.2,7.1 M1521.6,1412.8c6-20.6-10.5-23.3-7.8-17.8c-13-8.2,0-37.7,2.7-30.7c2.5-21.7-25.6,11-24.1-11.9   c-2.2-4.4-16.4-28.2-9.1-26.6c5-25.6,16.3-18,10.5-32.8c-11.7-4.6-15.1-4.4-3.2-21c14.2-9.1-14.2-12.5,0.7-24.1   c-22.8-8.6,8.7-4.4,2.7-10.1c-16-3.1-0.7-16.8-10.7-26.6c-2.5-7.6-8.8-5.6-9.4-22 M2362.8,876.6c9,2.2,30.8-7.2,25-6.4   c2-11.1,17.5,4.5,22-11 M2175.1,990.8c2.2,7-14.6,21.1,4.7,20.4c-0.4,24.9,8.7,19.6-13,26c12.1,13.1-5.6,9.1-4.4,27.7   c-2.4,10-20.8,19-13.5,30.8c-2.5,11.3-13,7.5-7.8,21.5c15.6,4.6-19.8,25.6-18.2,3.9c-6.2-10-17.3,1.7-16.1-17.1   c-6.3,13.3-8.2,9.2-20.8,8.6c-6.9-9.6-14.9-15.6-24.3-15.5c0.2-6.1-19.3-32.7-13.9-13.1c-1.3,11.2-20.9-3.4-25,11.2   c-11-7.6-21.8-6.7-34.3-15.4c3.5-22.5-14.4,1.8-23.4-6.9 M2597.2,1104.2c-6.6-11.8,4.4-16.3,0.9-14.9c-2.6-9.6-9.3-14.2-20.8-12.1   c2.2-8-8.8-14.6-3.8-22.4c-3.6-14.9-9.7-26,5.2-38.1 M1796.8,868.1c9-12,18.1-20.9,9.7-22.9c9.9-2.5,14.4-16.4,4.6-22.3   c3.6-9.2,19.2-6.8,14.8-19.5c11.4-1.8,20.5-16.1,27.3-0.6c8.9-1.1,31.3,5.9,21.6,3.3c6.4,3.4,16.1-5.5,21.3,6.4   c13.7,3.8,0.3,26-3,17.8c3.8,10.8-5.6,19.2-3.6,31.6c1.8,17.2,8.3,19.2-8.3,27c-1.9,2.9-8.3,7.2-7.7,10.7 M1860.2,765.9   c-13.2,3.6-19.8,14.1-3,17.5c1.5,0.8,3.7,0.6,4.9,1.9 M1845.7,794.9c-9.5-6.7-18.5-15.1-8.7-28.6c7.2-2.5,11-11.2,19-11.9    M1875.5,776.4c2.5-15.9-23.8-5.2-12.9-19.9c-16.2-4.8,2-4.4,7.6-6.9c11.7,17,28.6-22.2,31-2.1c10,9.2-5.8,22.2,1.7,27.3   c4.7,24.8-9.1-5.9-22.3,2.5C1878.8,776,1874.9,779.8,1875.5,776.4z M1860.3,800.9c-5.2-13.9,8-21.3,22.5-16   c6-11.7-10.2-1.1-7.2-7.1 M1903.7,787.4c3.2,11-0.4,13.2-3.3,26.6 M1841.2,764.1c4.8-13.3-11.8-12.8-12.7-25.3   c-10.5,6.6-25.4,2.2-33.9-6.8c-11,23.1-5.3-18.7-18.2-2.3c-10.6,4.4-12.6-0.2-23.6-5.3c-2.4-0.6-5.2,4.5-6,0.8 M1903.4,724.7   c5.6,8.1-12.1,11-6,16.1" /></g></svg>